ISO-10303-21;
HEADER;
/* Generated by software containing ST-Developer
 * from STEP Tools, Inc. (www.steptools.com) 
 */

FILE_DESCRIPTION(
/* description */ (''),
/* implementation_level */ '2;1');

FILE_NAME(
/* name */ 'BOTTOM.step',
/* time_stamp */ '2026-09-26T16:14:17-07:00',
/* author */ (''),
/* organization */ (''),
/* preprocessor_version */ 'ST-DEVELOPER v20.2',
/* originating_system */ 'Autodesk Translation Framework v15.15.0.0',
/* authorisation */ '');

FILE_SCHEMA (('AUTOMOTIVE_DESIGN { 1 0 10303 214 3 1 1 }'));
ENDSEC;

DATA;
#10=MECHANICAL_DESIGN_GEOMETRIC_PRESENTATION_REPRESENTATION('',(#13),#2115);
#11=SHAPE_REPRESENTATION_RELATIONSHIP('SRR','None',#2122,#12);
#12=ADVANCED_BREP_SHAPE_REPRESENTATION('',(#14),#2114);
#13=STYLED_ITEM('',(#2131),#14);
#14=MANIFOLD_SOLID_BREP('Body1',#1291);
#15=CIRCLE('',#1313,2.);
#16=CIRCLE('',#1314,2.);
#17=CIRCLE('',#1316,1.);
#18=CIRCLE('',#1317,1.);
#19=CIRCLE('',#1319,2.);
#20=CIRCLE('',#1320,2.);
#21=CIRCLE('',#1321,2.);
#22=CIRCLE('',#1322,2.3);
#23=CIRCLE('',#1323,2.3);
#24=CIRCLE('',#1324,2.3);
#25=CIRCLE('',#1325,2.3);
#26=CIRCLE('',#1327,2.);
#27=CIRCLE('',#1330,2.);
#28=CIRCLE('',#1332,2.);
#29=CIRCLE('',#1335,1.);
#30=CIRCLE('',#1338,1.);
#31=CIRCLE('',#1351,2.3);
#32=CIRCLE('',#1354,2.3);
#33=CIRCLE('',#1357,2.3);
#34=CIRCLE('',#1360,2.3);
#35=CIRCLE('',#1371,2.3);
#36=CIRCLE('',#1372,2.3);
#37=CIRCLE('',#1378,2.3);
#38=CIRCLE('',#1379,2.3);
#39=CIRCLE('',#1385,2.3);
#40=CIRCLE('',#1386,2.3);
#41=CIRCLE('',#1393,2.3);
#42=CIRCLE('',#1394,2.3);
#43=CYLINDRICAL_SURFACE('',#1312,2.);
#44=CYLINDRICAL_SURFACE('',#1326,2.);
#45=CYLINDRICAL_SURFACE('',#1329,2.);
#46=CYLINDRICAL_SURFACE('',#1331,2.);
#47=CYLINDRICAL_SURFACE('',#1334,1.);
#48=CYLINDRICAL_SURFACE('',#1337,1.);
#49=CYLINDRICAL_SURFACE('',#1350,2.3);
#50=CYLINDRICAL_SURFACE('',#1353,2.3);
#51=CYLINDRICAL_SURFACE('',#1356,2.3);
#52=CYLINDRICAL_SURFACE('',#1359,2.3);
#53=CYLINDRICAL_SURFACE('',#1370,2.3);
#54=CYLINDRICAL_SURFACE('',#1377,2.3);
#55=CYLINDRICAL_SURFACE('',#1384,2.3);
#56=CYLINDRICAL_SURFACE('',#1392,2.3);
#57=FACE_BOUND('',#148,.T.);
#58=FACE_BOUND('',#152,.T.);
#59=FACE_BOUND('',#153,.T.);
#60=FACE_BOUND('',#154,.T.);
#61=FACE_BOUND('',#155,.T.);
#62=FACE_BOUND('',#158,.T.);
#63=FACE_BOUND('',#162,.T.);
#64=FACE_BOUND('',#191,.T.);
#65=FACE_BOUND('',#198,.T.);
#66=FACE_BOUND('',#204,.T.);
#67=FACE_BOUND('',#210,.T.);
#68=FACE_BOUND('',#212,.T.);
#69=FACE_BOUND('',#218,.T.);
#70=FACE_BOUND('',#222,.T.);
#71=FACE_OUTER_BOUND('',#141,.T.);
#72=FACE_OUTER_BOUND('',#142,.T.);
#73=FACE_OUTER_BOUND('',#143,.T.);
#74=FACE_OUTER_BOUND('',#144,.T.);
#75=FACE_OUTER_BOUND('',#145,.T.);
#76=FACE_OUTER_BOUND('',#146,.T.);
#77=FACE_OUTER_BOUND('',#147,.T.);
#78=FACE_OUTER_BOUND('',#149,.T.);
#79=FACE_OUTER_BOUND('',#150,.T.);
#80=FACE_OUTER_BOUND('',#151,.T.);
#81=FACE_OUTER_BOUND('',#156,.T.);
#82=FACE_OUTER_BOUND('',#157,.T.);
#83=FACE_OUTER_BOUND('',#159,.T.);
#84=FACE_OUTER_BOUND('',#160,.T.);
#85=FACE_OUTER_BOUND('',#161,.T.);
#86=FACE_OUTER_BOUND('',#163,.T.);
#87=FACE_OUTER_BOUND('',#164,.T.);
#88=FACE_OUTER_BOUND('',#165,.T.);
#89=FACE_OUTER_BOUND('',#166,.T.);
#90=FACE_OUTER_BOUND('',#167,.T.);
#91=FACE_OUTER_BOUND('',#168,.T.);
#92=FACE_OUTER_BOUND('',#169,.T.);
#93=FACE_OUTER_BOUND('',#170,.T.);
#94=FACE_OUTER_BOUND('',#171,.T.);
#95=FACE_OUTER_BOUND('',#172,.T.);
#96=FACE_OUTER_BOUND('',#173,.T.);
#97=FACE_OUTER_BOUND('',#174,.T.);
#98=FACE_OUTER_BOUND('',#175,.T.);
#99=FACE_OUTER_BOUND('',#176,.T.);
#100=FACE_OUTER_BOUND('',#177,.T.);
#101=FACE_OUTER_BOUND('',#178,.T.);
#102=FACE_OUTER_BOUND('',#179,.T.);
#103=FACE_OUTER_BOUND('',#180,.T.);
#104=FACE_OUTER_BOUND('',#181,.T.);
#105=FACE_OUTER_BOUND('',#182,.T.);
#106=FACE_OUTER_BOUND('',#183,.T.);
#107=FACE_OUTER_BOUND('',#184,.T.);
#108=FACE_OUTER_BOUND('',#185,.T.);
#109=FACE_OUTER_BOUND('',#186,.T.);
#110=FACE_OUTER_BOUND('',#187,.T.);
#111=FACE_OUTER_BOUND('',#188,.T.);
#112=FACE_OUTER_BOUND('',#189,.T.);
#113=FACE_OUTER_BOUND('',#190,.T.);
#114=FACE_OUTER_BOUND('',#192,.T.);
#115=FACE_OUTER_BOUND('',#193,.T.);
#116=FACE_OUTER_BOUND('',#194,.T.);
#117=FACE_OUTER_BOUND('',#195,.T.);
#118=FACE_OUTER_BOUND('',#196,.T.);
#119=FACE_OUTER_BOUND('',#197,.T.);
#120=FACE_OUTER_BOUND('',#199,.T.);
#121=FACE_OUTER_BOUND('',#200,.T.);
#122=FACE_OUTER_BOUND('',#201,.T.);
#123=FACE_OUTER_BOUND('',#202,.T.);
#124=FACE_OUTER_BOUND('',#203,.T.);
#125=FACE_OUTER_BOUND('',#205,.T.);
#126=FACE_OUTER_BOUND('',#206,.T.);
#127=FACE_OUTER_BOUND('',#207,.T.);
#128=FACE_OUTER_BOUND('',#208,.T.);
#129=FACE_OUTER_BOUND('',#209,.T.);
#130=FACE_OUTER_BOUND('',#211,.T.);
#131=FACE_OUTER_BOUND('',#213,.T.);
#132=FACE_OUTER_BOUND('',#214,.T.);
#133=FACE_OUTER_BOUND('',#215,.T.);
#134=FACE_OUTER_BOUND('',#216,.T.);
#135=FACE_OUTER_BOUND('',#217,.T.);
#136=FACE_OUTER_BOUND('',#219,.T.);
#137=FACE_OUTER_BOUND('',#220,.T.);
#138=FACE_OUTER_BOUND('',#221,.T.);
#139=FACE_OUTER_BOUND('',#223,.T.);
#140=FACE_OUTER_BOUND('',#224,.T.);
#141=EDGE_LOOP('',(#813,#814,#815,#816));
#142=EDGE_LOOP('',(#817,#818,#819,#820));
#143=EDGE_LOOP('',(#821,#822,#823,#824));
#144=EDGE_LOOP('',(#825,#826,#827,#828));
#145=EDGE_LOOP('',(#829,#830,#831,#832));
#146=EDGE_LOOP('',(#833,#834,#835,#836));
#147=EDGE_LOOP('',(#837,#838,#839,#840));
#148=EDGE_LOOP('',(#841,#842,#843,#844));
#149=EDGE_LOOP('',(#845,#846,#847,#848));
#150=EDGE_LOOP('',(#849,#850,#851,#852,#853,#854,#855,#856,#857,#858));
#151=EDGE_LOOP('',(#859,#860,#861,#862,#863,#864,#865,#866,#867,#868,#869,
#870,#871,#872,#873,#874,#875,#876,#877,#878,#879,#880));
#152=EDGE_LOOP('',(#881));
#153=EDGE_LOOP('',(#882));
#154=EDGE_LOOP('',(#883));
#155=EDGE_LOOP('',(#884));
#156=EDGE_LOOP('',(#885,#886,#887,#888));
#157=EDGE_LOOP('',(#889,#890,#891,#892));
#158=EDGE_LOOP('',(#893,#894,#895,#896));
#159=EDGE_LOOP('',(#897,#898,#899,#900));
#160=EDGE_LOOP('',(#901,#902,#903,#904));
#161=EDGE_LOOP('',(#905,#906,#907,#908));
#162=EDGE_LOOP('',(#909,#910,#911,#912));
#163=EDGE_LOOP('',(#913,#914,#915,#916));
#164=EDGE_LOOP('',(#917,#918,#919,#920));
#165=EDGE_LOOP('',(#921,#922,#923,#924));
#166=EDGE_LOOP('',(#925,#926,#927,#928));
#167=EDGE_LOOP('',(#929,#930,#931,#932));
#168=EDGE_LOOP('',(#933,#934,#935,#936));
#169=EDGE_LOOP('',(#937,#938,#939,#940));
#170=EDGE_LOOP('',(#941,#942,#943,#944));
#171=EDGE_LOOP('',(#945,#946,#947,#948));
#172=EDGE_LOOP('',(#949,#950,#951,#952));
#173=EDGE_LOOP('',(#953,#954,#955,#956));
#174=EDGE_LOOP('',(#957,#958,#959,#960));
#175=EDGE_LOOP('',(#961,#962,#963,#964));
#176=EDGE_LOOP('',(#965,#966,#967,#968,#969,#970,#971,#972,#973,#974,#975,
#976,#977,#978));
#177=EDGE_LOOP('',(#979,#980,#981,#982));
#178=EDGE_LOOP('',(#983));
#179=EDGE_LOOP('',(#984,#985,#986,#987));
#180=EDGE_LOOP('',(#988));
#181=EDGE_LOOP('',(#989,#990,#991,#992));
#182=EDGE_LOOP('',(#993));
#183=EDGE_LOOP('',(#994,#995,#996,#997));
#184=EDGE_LOOP('',(#998));
#185=EDGE_LOOP('',(#999,#1000,#1001,#1002));
#186=EDGE_LOOP('',(#1003,#1004,#1005,#1006));
#187=EDGE_LOOP('',(#1007,#1008,#1009,#1010));
#188=EDGE_LOOP('',(#1011,#1012,#1013,#1014));
#189=EDGE_LOOP('',(#1015,#1016,#1017,#1018));
#190=EDGE_LOOP('',(#1019,#1020,#1021,#1022));
#191=EDGE_LOOP('',(#1023,#1024,#1025,#1026));
#192=EDGE_LOOP('',(#1027,#1028,#1029,#1030));
#193=EDGE_LOOP('',(#1031,#1032,#1033,#1034,#1035,#1036));
#194=EDGE_LOOP('',(#1037,#1038,#1039,#1040));
#195=EDGE_LOOP('',(#1041,#1042,#1043,#1044));
#196=EDGE_LOOP('',(#1045,#1046,#1047,#1048));
#197=EDGE_LOOP('',(#1049,#1050,#1051,#1052));
#198=EDGE_LOOP('',(#1053));
#199=EDGE_LOOP('',(#1054,#1055,#1056,#1057,#1058,#1059,#1060,#1061,#1062,
#1063,#1064,#1065));
#200=EDGE_LOOP('',(#1066,#1067,#1068,#1069));
#201=EDGE_LOOP('',(#1070,#1071,#1072,#1073));
#202=EDGE_LOOP('',(#1074,#1075,#1076,#1077));
#203=EDGE_LOOP('',(#1078,#1079,#1080,#1081));
#204=EDGE_LOOP('',(#1082));
#205=EDGE_LOOP('',(#1083));
#206=EDGE_LOOP('',(#1084,#1085,#1086,#1087));
#207=EDGE_LOOP('',(#1088,#1089,#1090,#1091));
#208=EDGE_LOOP('',(#1092,#1093,#1094,#1095));
#209=EDGE_LOOP('',(#1096,#1097,#1098,#1099));
#210=EDGE_LOOP('',(#1100));
#211=EDGE_LOOP('',(#1101,#1102,#1103,#1104,#1105,#1106,#1107,#1108));
#212=EDGE_LOOP('',(#1109,#1110,#1111,#1112));
#213=EDGE_LOOP('',(#1113));
#214=EDGE_LOOP('',(#1114,#1115,#1116,#1117));
#215=EDGE_LOOP('',(#1118,#1119,#1120,#1121));
#216=EDGE_LOOP('',(#1122,#1123,#1124,#1125));
#217=EDGE_LOOP('',(#1126,#1127,#1128,#1129));
#218=EDGE_LOOP('',(#1130));
#219=EDGE_LOOP('',(#1131));
#220=EDGE_LOOP('',(#1132,#1133,#1134,#1135,#1136,#1137,#1138,#1139,#1140,
#1141,#1142,#1143));
#221=EDGE_LOOP('',(#1144,#1145,#1146,#1147,#1148,#1149,#1150,#1151));
#222=EDGE_LOOP('',(#1152,#1153,#1154,#1155));
#223=EDGE_LOOP('',(#1156));
#224=EDGE_LOOP('',(#1157,#1158,#1159,#1160,#1161,#1162,#1163,#1164));
#225=LINE('',#1753,#373);
#226=LINE('',#1755,#374);
#227=LINE('',#1757,#375);
#228=LINE('',#1758,#376);
#229=LINE('',#1761,#377);
#230=LINE('',#1763,#378);
#231=LINE('',#1764,#379);
#232=LINE('',#1767,#380);
#233=LINE('',#1769,#381);
#234=LINE('',#1770,#382);
#235=LINE('',#1772,#383);
#236=LINE('',#1773,#384);
#237=LINE('',#1776,#385);
#238=LINE('',#1778,#386);
#239=LINE('',#1779,#387);
#240=LINE('',#1782,#388);
#241=LINE('',#1783,#389);
#242=LINE('',#1787,#390);
#243=LINE('',#1789,#391);
#244=LINE('',#1791,#392);
#245=LINE('',#1792,#393);
#246=LINE('',#1798,#394);
#247=LINE('',#1801,#395);
#248=LINE('',#1804,#396);
#249=LINE('',#1806,#397);
#250=LINE('',#1810,#398);
#251=LINE('',#1814,#399);
#252=LINE('',#1816,#400);
#253=LINE('',#1818,#401);
#254=LINE('',#1819,#402);
#255=LINE('',#1822,#403);
#256=LINE('',#1827,#404);
#257=LINE('',#1830,#405);
#258=LINE('',#1832,#406);
#259=LINE('',#1834,#407);
#260=LINE('',#1836,#408);
#261=LINE('',#1838,#409);
#262=LINE('',#1840,#410);
#263=LINE('',#1842,#411);
#264=LINE('',#1844,#412);
#265=LINE('',#1846,#413);
#266=LINE('',#1848,#414);
#267=LINE('',#1850,#415);
#268=LINE('',#1852,#416);
#269=LINE('',#1853,#417);
#270=LINE('',#1864,#418);
#271=LINE('',#1868,#419);
#272=LINE('',#1869,#420);
#273=LINE('',#1872,#421);
#274=LINE('',#1874,#422);
#275=LINE('',#1876,#423);
#276=LINE('',#1877,#424);
#277=LINE('',#1882,#425);
#278=LINE('',#1885,#426);
#279=LINE('',#1888,#427);
#280=LINE('',#1890,#428);
#281=LINE('',#1892,#429);
#282=LINE('',#1893,#430);
#283=LINE('',#1896,#431);
#284=LINE('',#1899,#432);
#285=LINE('',#1902,#433);
#286=LINE('',#1903,#434);
#287=LINE('',#1906,#435);
#288=LINE('',#1909,#436);
#289=LINE('',#1913,#437);
#290=LINE('',#1914,#438);
#291=LINE('',#1915,#439);
#292=LINE('',#1918,#440);
#293=LINE('',#1920,#441);
#294=LINE('',#1921,#442);
#295=LINE('',#1924,#443);
#296=LINE('',#1925,#444);
#297=LINE('',#1928,#445);
#298=LINE('',#1929,#446);
#299=LINE('',#1932,#447);
#300=LINE('',#1933,#448);
#301=LINE('',#1935,#449);
#302=LINE('',#1938,#450);
#303=LINE('',#1939,#451);
#304=LINE('',#1941,#452);
#305=LINE('',#1943,#453);
#306=LINE('',#1946,#454);
#307=LINE('',#1948,#455);
#308=LINE('',#1950,#456);
#309=LINE('',#1952,#457);
#310=LINE('',#1954,#458);
#311=LINE('',#1956,#459);
#312=LINE('',#1957,#460);
#313=LINE('',#1960,#461);
#314=LINE('',#1965,#462);
#315=LINE('',#1970,#463);
#316=LINE('',#1975,#464);
#317=LINE('',#1980,#465);
#318=LINE('',#1981,#466);
#319=LINE('',#1983,#467);
#320=LINE('',#1986,#468);
#321=LINE('',#1988,#469);
#322=LINE('',#1989,#470);
#323=LINE('',#1992,#471);
#324=LINE('',#1993,#472);
#325=LINE('',#1996,#473);
#326=LINE('',#1997,#474);
#327=LINE('',#2000,#475);
#328=LINE('',#2001,#476);
#329=LINE('',#2004,#477);
#330=LINE('',#2005,#478);
#331=LINE('',#2007,#479);
#332=LINE('',#2012,#480);
#333=LINE('',#2016,#481);
#334=LINE('',#2018,#482);
#335=LINE('',#2019,#483);
#336=LINE('',#2022,#484);
#337=LINE('',#2024,#485);
#338=LINE('',#2025,#486);
#339=LINE('',#2027,#487);
#340=LINE('',#2030,#488);
#341=LINE('',#2032,#489);
#342=LINE('',#2034,#490);
#343=LINE('',#2036,#491);
#344=LINE('',#2038,#492);
#345=LINE('',#2040,#493);
#346=LINE('',#2042,#494);
#347=LINE('',#2044,#495);
#348=LINE('',#2045,#496);
#349=LINE('',#2050,#497);
#350=LINE('',#2054,#498);
#351=LINE('',#2056,#499);
#352=LINE('',#2057,#500);
#353=LINE('',#2060,#501);
#354=LINE('',#2061,#502);
#355=LINE('',#2064,#503);
#356=LINE('',#2065,#504);
#357=LINE('',#2071,#505);
#358=LINE('',#2075,#506);
#359=LINE('',#2077,#507);
#360=LINE('',#2078,#508);
#361=LINE('',#2081,#509);
#362=LINE('',#2082,#510);
#363=LINE('',#2085,#511);
#364=LINE('',#2086,#512);
#365=LINE('',#2088,#513);
#366=LINE('',#2094,#514);
#367=LINE('',#2098,#515);
#368=LINE('',#2100,#516);
#369=LINE('',#2101,#517);
#370=LINE('',#2103,#518);
#371=LINE('',#2105,#519);
#372=LINE('',#2108,#520);
#373=VECTOR('',#1407,10.);
#374=VECTOR('',#1408,10.);
#375=VECTOR('',#1409,10.);
#376=VECTOR('',#1410,10.);
#377=VECTOR('',#1413,10.);
#378=VECTOR('',#1414,10.);
#379=VECTOR('',#1415,10.);
#380=VECTOR('',#1418,10.);
#381=VECTOR('',#1419,10.);
#382=VECTOR('',#1420,10.);
#383=VECTOR('',#1423,10.);
#384=VECTOR('',#1424,10.);
#385=VECTOR('',#1427,10.);
#386=VECTOR('',#1428,10.);
#387=VECTOR('',#1429,10.);
#388=VECTOR('',#1432,10.);
#389=VECTOR('',#1433,10.);
#390=VECTOR('',#1436,10.);
#391=VECTOR('',#1437,10.);
#392=VECTOR('',#1438,10.);
#393=VECTOR('',#1439,10.);
#394=VECTOR('',#1444,10.);
#395=VECTOR('',#1447,10.);
#396=VECTOR('',#1450,10.);
#397=VECTOR('',#1451,10.);
#398=VECTOR('',#1454,10.);
#399=VECTOR('',#1457,10.);
#400=VECTOR('',#1458,10.);
#401=VECTOR('',#1459,10.);
#402=VECTOR('',#1460,10.);
#403=VECTOR('',#1463,10.);
#404=VECTOR('',#1468,10.);
#405=VECTOR('',#1471,10.);
#406=VECTOR('',#1472,10.);
#407=VECTOR('',#1473,10.);
#408=VECTOR('',#1474,10.);
#409=VECTOR('',#1475,10.);
#410=VECTOR('',#1476,10.);
#411=VECTOR('',#1477,10.);
#412=VECTOR('',#1478,10.);
#413=VECTOR('',#1479,10.);
#414=VECTOR('',#1480,10.);
#415=VECTOR('',#1481,10.);
#416=VECTOR('',#1482,10.);
#417=VECTOR('',#1483,10.);
#418=VECTOR('',#1494,10.);
#419=VECTOR('',#1499,10.);
#420=VECTOR('',#1500,10.);
#421=VECTOR('',#1501,10.);
#422=VECTOR('',#1502,10.);
#423=VECTOR('',#1503,10.);
#424=VECTOR('',#1504,10.);
#425=VECTOR('',#1511,10.);
#426=VECTOR('',#1516,10.);
#427=VECTOR('',#1517,10.);
#428=VECTOR('',#1518,10.);
#429=VECTOR('',#1519,10.);
#430=VECTOR('',#1520,10.);
#431=VECTOR('',#1523,10.);
#432=VECTOR('',#1526,10.);
#433=VECTOR('',#1529,10.);
#434=VECTOR('',#1530,10.);
#435=VECTOR('',#1533,10.);
#436=VECTOR('',#1538,10.);
#437=VECTOR('',#1541,10.);
#438=VECTOR('',#1542,10.);
#439=VECTOR('',#1543,10.);
#440=VECTOR('',#1546,10.);
#441=VECTOR('',#1547,10.);
#442=VECTOR('',#1548,10.);
#443=VECTOR('',#1551,10.);
#444=VECTOR('',#1552,10.);
#445=VECTOR('',#1555,10.);
#446=VECTOR('',#1556,10.);
#447=VECTOR('',#1559,10.);
#448=VECTOR('',#1560,10.);
#449=VECTOR('',#1563,10.);
#450=VECTOR('',#1566,10.);
#451=VECTOR('',#1567,10.);
#452=VECTOR('',#1570,10.);
#453=VECTOR('',#1573,10.);
#454=VECTOR('',#1576,10.);
#455=VECTOR('',#1577,10.);
#456=VECTOR('',#1578,10.);
#457=VECTOR('',#1579,10.);
#458=VECTOR('',#1580,10.);
#459=VECTOR('',#1581,10.);
#460=VECTOR('',#1582,10.);
#461=VECTOR('',#1585,2.3);
#462=VECTOR('',#1592,2.3);
#463=VECTOR('',#1599,2.3);
#464=VECTOR('',#1606,2.3);
#465=VECTOR('',#1613,10.);
#466=VECTOR('',#1614,10.);
#467=VECTOR('',#1617,10.);
#468=VECTOR('',#1620,10.);
#469=VECTOR('',#1621,10.);
#470=VECTOR('',#1622,10.);
#471=VECTOR('',#1625,10.);
#472=VECTOR('',#1626,10.);
#473=VECTOR('',#1629,10.);
#474=VECTOR('',#1630,10.);
#475=VECTOR('',#1633,10.);
#476=VECTOR('',#1634,10.);
#477=VECTOR('',#1637,10.);
#478=VECTOR('',#1638,10.);
#479=VECTOR('',#1641,10.);
#480=VECTOR('',#1646,2.3);
#481=VECTOR('',#1651,10.);
#482=VECTOR('',#1652,10.);
#483=VECTOR('',#1653,10.);
#484=VECTOR('',#1656,10.);
#485=VECTOR('',#1657,10.);
#486=VECTOR('',#1658,10.);
#487=VECTOR('',#1661,10.);
#488=VECTOR('',#1664,10.);
#489=VECTOR('',#1665,10.);
#490=VECTOR('',#1666,10.);
#491=VECTOR('',#1667,10.);
#492=VECTOR('',#1668,10.);
#493=VECTOR('',#1669,10.);
#494=VECTOR('',#1670,10.);
#495=VECTOR('',#1671,10.);
#496=VECTOR('',#1672,10.);
#497=VECTOR('',#1677,2.3);
#498=VECTOR('',#1682,10.);
#499=VECTOR('',#1683,10.);
#500=VECTOR('',#1684,10.);
#501=VECTOR('',#1687,10.);
#502=VECTOR('',#1688,10.);
#503=VECTOR('',#1691,10.);
#504=VECTOR('',#1692,10.);
#505=VECTOR('',#1699,2.3);
#506=VECTOR('',#1704,10.);
#507=VECTOR('',#1705,10.);
#508=VECTOR('',#1706,10.);
#509=VECTOR('',#1709,10.);
#510=VECTOR('',#1710,10.);
#511=VECTOR('',#1713,10.);
#512=VECTOR('',#1714,10.);
#513=VECTOR('',#1717,10.);
#514=VECTOR('',#1724,2.3);
#515=VECTOR('',#1729,10.);
#516=VECTOR('',#1730,10.);
#517=VECTOR('',#1731,10.);
#518=VECTOR('',#1734,10.);
#519=VECTOR('',#1737,10.);
#520=VECTOR('',#1742,10.);
#521=VERTEX_POINT('',#1751);
#522=VERTEX_POINT('',#1752);
#523=VERTEX_POINT('',#1754);
#524=VERTEX_POINT('',#1756);
#525=VERTEX_POINT('',#1760);
#526=VERTEX_POINT('',#1762);
#527=VERTEX_POINT('',#1766);
#528=VERTEX_POINT('',#1768);
#529=VERTEX_POINT('',#1775);
#530=VERTEX_POINT('',#1777);
#531=VERTEX_POINT('',#1781);
#532=VERTEX_POINT('',#1785);
#533=VERTEX_POINT('',#1786);
#534=VERTEX_POINT('',#1788);
#535=VERTEX_POINT('',#1790);
#536=VERTEX_POINT('',#1794);
#537=VERTEX_POINT('',#1795);
#538=VERTEX_POINT('',#1797);
#539=VERTEX_POINT('',#1799);
#540=VERTEX_POINT('',#1803);
#541=VERTEX_POINT('',#1805);
#542=VERTEX_POINT('',#1807);
#543=VERTEX_POINT('',#1809);
#544=VERTEX_POINT('',#1811);
#545=VERTEX_POINT('',#1813);
#546=VERTEX_POINT('',#1815);
#547=VERTEX_POINT('',#1817);
#548=VERTEX_POINT('',#1821);
#549=VERTEX_POINT('',#1824);
#550=VERTEX_POINT('',#1826);
#551=VERTEX_POINT('',#1829);
#552=VERTEX_POINT('',#1831);
#553=VERTEX_POINT('',#1833);
#554=VERTEX_POINT('',#1835);
#555=VERTEX_POINT('',#1837);
#556=VERTEX_POINT('',#1839);
#557=VERTEX_POINT('',#1841);
#558=VERTEX_POINT('',#1843);
#559=VERTEX_POINT('',#1845);
#560=VERTEX_POINT('',#1847);
#561=VERTEX_POINT('',#1849);
#562=VERTEX_POINT('',#1851);
#563=VERTEX_POINT('',#1854);
#564=VERTEX_POINT('',#1856);
#565=VERTEX_POINT('',#1858);
#566=VERTEX_POINT('',#1860);
#567=VERTEX_POINT('',#1863);
#568=VERTEX_POINT('',#1867);
#569=VERTEX_POINT('',#1870);
#570=VERTEX_POINT('',#1871);
#571=VERTEX_POINT('',#1873);
#572=VERTEX_POINT('',#1875);
#573=VERTEX_POINT('',#1881);
#574=VERTEX_POINT('',#1886);
#575=VERTEX_POINT('',#1887);
#576=VERTEX_POINT('',#1889);
#577=VERTEX_POINT('',#1891);
#578=VERTEX_POINT('',#1895);
#579=VERTEX_POINT('',#1897);
#580=VERTEX_POINT('',#1901);
#581=VERTEX_POINT('',#1905);
#582=VERTEX_POINT('',#1911);
#583=VERTEX_POINT('',#1912);
#584=VERTEX_POINT('',#1917);
#585=VERTEX_POINT('',#1919);
#586=VERTEX_POINT('',#1923);
#587=VERTEX_POINT('',#1927);
#588=VERTEX_POINT('',#1931);
#589=VERTEX_POINT('',#1937);
#590=VERTEX_POINT('',#1945);
#591=VERTEX_POINT('',#1947);
#592=VERTEX_POINT('',#1949);
#593=VERTEX_POINT('',#1951);
#594=VERTEX_POINT('',#1953);
#595=VERTEX_POINT('',#1955);
#596=VERTEX_POINT('',#1959);
#597=VERTEX_POINT('',#1964);
#598=VERTEX_POINT('',#1969);
#599=VERTEX_POINT('',#1974);
#600=VERTEX_POINT('',#1979);
#601=VERTEX_POINT('',#1985);
#602=VERTEX_POINT('',#1987);
#603=VERTEX_POINT('',#1991);
#604=VERTEX_POINT('',#1995);
#605=VERTEX_POINT('',#1999);
#606=VERTEX_POINT('',#2003);
#607=VERTEX_POINT('',#2009);
#608=VERTEX_POINT('',#2011);
#609=VERTEX_POINT('',#2015);
#610=VERTEX_POINT('',#2017);
#611=VERTEX_POINT('',#2021);
#612=VERTEX_POINT('',#2023);
#613=VERTEX_POINT('',#2029);
#614=VERTEX_POINT('',#2031);
#615=VERTEX_POINT('',#2033);
#616=VERTEX_POINT('',#2035);
#617=VERTEX_POINT('',#2037);
#618=VERTEX_POINT('',#2039);
#619=VERTEX_POINT('',#2041);
#620=VERTEX_POINT('',#2043);
#621=VERTEX_POINT('',#2047);
#622=VERTEX_POINT('',#2049);
#623=VERTEX_POINT('',#2053);
#624=VERTEX_POINT('',#2055);
#625=VERTEX_POINT('',#2059);
#626=VERTEX_POINT('',#2063);
#627=VERTEX_POINT('',#2068);
#628=VERTEX_POINT('',#2070);
#629=VERTEX_POINT('',#2074);
#630=VERTEX_POINT('',#2076);
#631=VERTEX_POINT('',#2080);
#632=VERTEX_POINT('',#2084);
#633=VERTEX_POINT('',#2091);
#634=VERTEX_POINT('',#2093);
#635=VERTEX_POINT('',#2097);
#636=VERTEX_POINT('',#2099);
#637=EDGE_CURVE('',#521,#522,#225,.T.);
#638=EDGE_CURVE('',#522,#523,#226,.T.);
#639=EDGE_CURVE('',#523,#524,#227,.T.);
#640=EDGE_CURVE('',#521,#524,#228,.T.);
#641=EDGE_CURVE('',#522,#525,#229,.T.);
#642=EDGE_CURVE('',#525,#526,#230,.T.);
#643=EDGE_CURVE('',#526,#523,#231,.T.);
#644=EDGE_CURVE('',#524,#527,#232,.T.);
#645=EDGE_CURVE('',#527,#528,#233,.T.);
#646=EDGE_CURVE('',#528,#521,#234,.T.);
#647=EDGE_CURVE('',#525,#528,#235,.T.);
#648=EDGE_CURVE('',#527,#526,#236,.T.);
#649=EDGE_CURVE('',#524,#529,#237,.T.);
#650=EDGE_CURVE('',#530,#529,#238,.T.);
#651=EDGE_CURVE('',#527,#530,#239,.T.);
#652=EDGE_CURVE('',#523,#531,#240,.T.);
#653=EDGE_CURVE('',#529,#531,#241,.T.);
#654=EDGE_CURVE('',#532,#533,#242,.T.);
#655=EDGE_CURVE('',#534,#532,#243,.T.);
#656=EDGE_CURVE('',#535,#534,#244,.T.);
#657=EDGE_CURVE('',#533,#535,#245,.T.);
#658=EDGE_CURVE('',#536,#537,#15,.T.);
#659=EDGE_CURVE('',#537,#538,#246,.T.);
#660=EDGE_CURVE('',#538,#539,#16,.T.);
#661=EDGE_CURVE('',#539,#536,#247,.T.);
#662=EDGE_CURVE('',#540,#537,#248,.T.);
#663=EDGE_CURVE('',#540,#541,#249,.T.);
#664=EDGE_CURVE('',#542,#541,#17,.T.);
#665=EDGE_CURVE('',#542,#543,#250,.T.);
#666=EDGE_CURVE('',#544,#543,#18,.T.);
#667=EDGE_CURVE('',#544,#545,#251,.T.);
#668=EDGE_CURVE('',#546,#545,#252,.T.);
#669=EDGE_CURVE('',#547,#546,#253,.T.);
#670=EDGE_CURVE('',#538,#547,#254,.T.);
#671=EDGE_CURVE('',#536,#548,#255,.T.);
#672=EDGE_CURVE('',#534,#548,#19,.T.);
#673=EDGE_CURVE('',#549,#532,#20,.T.);
#674=EDGE_CURVE('',#549,#550,#256,.T.);
#675=EDGE_CURVE('',#546,#550,#21,.T.);
#676=EDGE_CURVE('',#545,#551,#257,.T.);
#677=EDGE_CURVE('',#551,#552,#258,.T.);
#678=EDGE_CURVE('',#552,#553,#259,.T.);
#679=EDGE_CURVE('',#553,#554,#260,.T.);
#680=EDGE_CURVE('',#554,#555,#261,.T.);
#681=EDGE_CURVE('',#555,#556,#262,.T.);
#682=EDGE_CURVE('',#556,#557,#263,.T.);
#683=EDGE_CURVE('',#557,#558,#264,.T.);
#684=EDGE_CURVE('',#558,#559,#265,.T.);
#685=EDGE_CURVE('',#559,#560,#266,.T.);
#686=EDGE_CURVE('',#560,#561,#267,.T.);
#687=EDGE_CURVE('',#561,#562,#268,.T.);
#688=EDGE_CURVE('',#562,#540,#269,.T.);
#689=EDGE_CURVE('',#563,#563,#22,.T.);
#690=EDGE_CURVE('',#564,#564,#23,.T.);
#691=EDGE_CURVE('',#565,#565,#24,.T.);
#692=EDGE_CURVE('',#566,#566,#25,.T.);
#693=EDGE_CURVE('',#550,#567,#270,.T.);
#694=EDGE_CURVE('',#567,#547,#26,.T.);
#695=EDGE_CURVE('',#568,#549,#271,.T.);
#696=EDGE_CURVE('',#568,#567,#272,.T.);
#697=EDGE_CURVE('',#569,#570,#273,.T.);
#698=EDGE_CURVE('',#570,#571,#274,.T.);
#699=EDGE_CURVE('',#571,#572,#275,.T.);
#700=EDGE_CURVE('',#572,#569,#276,.T.);
#701=EDGE_CURVE('',#533,#568,#27,.T.);
#702=EDGE_CURVE('',#548,#573,#277,.T.);
#703=EDGE_CURVE('',#573,#535,#28,.T.);
#704=EDGE_CURVE('',#539,#573,#278,.T.);
#705=EDGE_CURVE('',#574,#575,#279,.T.);
#706=EDGE_CURVE('',#575,#576,#280,.T.);
#707=EDGE_CURVE('',#576,#577,#281,.T.);
#708=EDGE_CURVE('',#577,#574,#282,.T.);
#709=EDGE_CURVE('',#543,#578,#283,.T.);
#710=EDGE_CURVE('',#578,#579,#29,.T.);
#711=EDGE_CURVE('',#579,#544,#284,.T.);
#712=EDGE_CURVE('',#580,#542,#285,.T.);
#713=EDGE_CURVE('',#578,#580,#286,.T.);
#714=EDGE_CURVE('',#541,#581,#287,.T.);
#715=EDGE_CURVE('',#581,#580,#30,.T.);
#716=EDGE_CURVE('',#581,#562,#288,.T.);
#717=EDGE_CURVE('',#582,#583,#289,.T.);
#718=EDGE_CURVE('',#572,#582,#290,.T.);
#719=EDGE_CURVE('',#571,#583,#291,.T.);
#720=EDGE_CURVE('',#584,#576,#292,.T.);
#721=EDGE_CURVE('',#585,#584,#293,.T.);
#722=EDGE_CURVE('',#585,#577,#294,.T.);
#723=EDGE_CURVE('',#586,#582,#295,.T.);
#724=EDGE_CURVE('',#569,#586,#296,.T.);
#725=EDGE_CURVE('',#583,#587,#297,.T.);
#726=EDGE_CURVE('',#570,#587,#298,.T.);
#727=EDGE_CURVE('',#588,#585,#299,.T.);
#728=EDGE_CURVE('',#588,#574,#300,.T.);
#729=EDGE_CURVE('',#587,#586,#301,.T.);
#730=EDGE_CURVE('',#589,#588,#302,.T.);
#731=EDGE_CURVE('',#589,#575,#303,.T.);
#732=EDGE_CURVE('',#584,#589,#304,.T.);
#733=EDGE_CURVE('',#551,#579,#305,.T.);
#734=EDGE_CURVE('',#590,#561,#306,.T.);
#735=EDGE_CURVE('',#590,#591,#307,.T.);
#736=EDGE_CURVE('',#591,#592,#308,.T.);
#737=EDGE_CURVE('',#593,#592,#309,.T.);
#738=EDGE_CURVE('',#593,#594,#310,.T.);
#739=EDGE_CURVE('',#594,#595,#311,.T.);
#740=EDGE_CURVE('',#595,#552,#312,.T.);
#741=EDGE_CURVE('',#566,#596,#313,.T.);
#742=EDGE_CURVE('',#596,#596,#31,.T.);
#743=EDGE_CURVE('',#565,#597,#314,.T.);
#744=EDGE_CURVE('',#597,#597,#32,.T.);
#745=EDGE_CURVE('',#564,#598,#315,.T.);
#746=EDGE_CURVE('',#598,#598,#33,.T.);
#747=EDGE_CURVE('',#563,#599,#316,.T.);
#748=EDGE_CURVE('',#599,#599,#34,.T.);
#749=EDGE_CURVE('',#526,#600,#317,.T.);
#750=EDGE_CURVE('',#531,#600,#318,.T.);
#751=EDGE_CURVE('',#600,#530,#319,.T.);
#752=EDGE_CURVE('',#558,#601,#320,.T.);
#753=EDGE_CURVE('',#601,#602,#321,.T.);
#754=EDGE_CURVE('',#559,#602,#322,.T.);
#755=EDGE_CURVE('',#557,#603,#323,.T.);
#756=EDGE_CURVE('',#603,#601,#324,.T.);
#757=EDGE_CURVE('',#556,#604,#325,.T.);
#758=EDGE_CURVE('',#604,#603,#326,.T.);
#759=EDGE_CURVE('',#555,#605,#327,.T.);
#760=EDGE_CURVE('',#605,#604,#328,.T.);
#761=EDGE_CURVE('',#606,#554,#329,.T.);
#762=EDGE_CURVE('',#606,#605,#330,.T.);
#763=EDGE_CURVE('',#602,#606,#331,.T.);
#764=EDGE_CURVE('',#607,#607,#35,.T.);
#765=EDGE_CURVE('',#607,#608,#332,.T.);
#766=EDGE_CURVE('',#608,#608,#36,.T.);
#767=EDGE_CURVE('',#592,#609,#333,.T.);
#768=EDGE_CURVE('',#610,#591,#334,.T.);
#769=EDGE_CURVE('',#609,#610,#335,.T.);
#770=EDGE_CURVE('',#609,#611,#336,.T.);
#771=EDGE_CURVE('',#612,#610,#337,.T.);
#772=EDGE_CURVE('',#611,#612,#338,.T.);
#773=EDGE_CURVE('',#612,#590,#339,.T.);
#774=EDGE_CURVE('',#611,#613,#340,.T.);
#775=EDGE_CURVE('',#613,#614,#341,.T.);
#776=EDGE_CURVE('',#614,#615,#342,.T.);
#777=EDGE_CURVE('',#615,#616,#343,.T.);
#778=EDGE_CURVE('',#616,#617,#344,.T.);
#779=EDGE_CURVE('',#617,#618,#345,.T.);
#780=EDGE_CURVE('',#618,#619,#346,.T.);
#781=EDGE_CURVE('',#619,#620,#347,.T.);
#782=EDGE_CURVE('',#620,#593,#348,.T.);
#783=EDGE_CURVE('',#621,#621,#37,.T.);
#784=EDGE_CURVE('',#621,#622,#349,.T.);
#785=EDGE_CURVE('',#622,#622,#38,.T.);
#786=EDGE_CURVE('',#623,#616,#350,.T.);
#787=EDGE_CURVE('',#624,#623,#351,.T.);
#788=EDGE_CURVE('',#617,#624,#352,.T.);
#789=EDGE_CURVE('',#625,#624,#353,.T.);
#790=EDGE_CURVE('',#618,#625,#354,.T.);
#791=EDGE_CURVE('',#626,#623,#355,.T.);
#792=EDGE_CURVE('',#625,#626,#356,.T.);
#793=EDGE_CURVE('',#627,#627,#39,.T.);
#794=EDGE_CURVE('',#627,#628,#357,.T.);
#795=EDGE_CURVE('',#628,#628,#40,.T.);
#796=EDGE_CURVE('',#629,#613,#358,.T.);
#797=EDGE_CURVE('',#630,#629,#359,.T.);
#798=EDGE_CURVE('',#614,#630,#360,.T.);
#799=EDGE_CURVE('',#631,#630,#361,.T.);
#800=EDGE_CURVE('',#615,#631,#362,.T.);
#801=EDGE_CURVE('',#632,#629,#363,.T.);
#802=EDGE_CURVE('',#631,#632,#364,.T.);
#803=EDGE_CURVE('',#632,#560,#365,.T.);
#804=EDGE_CURVE('',#633,#633,#41,.T.);
#805=EDGE_CURVE('',#633,#634,#366,.T.);
#806=EDGE_CURVE('',#634,#634,#42,.T.);
#807=EDGE_CURVE('',#635,#619,#367,.T.);
#808=EDGE_CURVE('',#636,#635,#368,.T.);
#809=EDGE_CURVE('',#620,#636,#369,.T.);
#810=EDGE_CURVE('',#594,#636,#370,.T.);
#811=EDGE_CURVE('',#595,#635,#371,.T.);
#812=EDGE_CURVE('',#626,#553,#372,.T.);
#813=ORIENTED_EDGE('',*,*,#637,.T.);
#814=ORIENTED_EDGE('',*,*,#638,.T.);
#815=ORIENTED_EDGE('',*,*,#639,.T.);
#816=ORIENTED_EDGE('',*,*,#640,.F.);
#817=ORIENTED_EDGE('',*,*,#641,.T.);
#818=ORIENTED_EDGE('',*,*,#642,.T.);
#819=ORIENTED_EDGE('',*,*,#643,.T.);
#820=ORIENTED_EDGE('',*,*,#638,.F.);
#821=ORIENTED_EDGE('',*,*,#644,.T.);
#822=ORIENTED_EDGE('',*,*,#645,.T.);
#823=ORIENTED_EDGE('',*,*,#646,.T.);
#824=ORIENTED_EDGE('',*,*,#640,.T.);
#825=ORIENTED_EDGE('',*,*,#647,.T.);
#826=ORIENTED_EDGE('',*,*,#645,.F.);
#827=ORIENTED_EDGE('',*,*,#648,.T.);
#828=ORIENTED_EDGE('',*,*,#642,.F.);
#829=ORIENTED_EDGE('',*,*,#644,.F.);
#830=ORIENTED_EDGE('',*,*,#649,.T.);
#831=ORIENTED_EDGE('',*,*,#650,.F.);
#832=ORIENTED_EDGE('',*,*,#651,.F.);
#833=ORIENTED_EDGE('',*,*,#639,.F.);
#834=ORIENTED_EDGE('',*,*,#652,.T.);
#835=ORIENTED_EDGE('',*,*,#653,.F.);
#836=ORIENTED_EDGE('',*,*,#649,.F.);
#837=ORIENTED_EDGE('',*,*,#654,.F.);
#838=ORIENTED_EDGE('',*,*,#655,.F.);
#839=ORIENTED_EDGE('',*,*,#656,.F.);
#840=ORIENTED_EDGE('',*,*,#657,.F.);
#841=ORIENTED_EDGE('',*,*,#637,.F.);
#842=ORIENTED_EDGE('',*,*,#646,.F.);
#843=ORIENTED_EDGE('',*,*,#647,.F.);
#844=ORIENTED_EDGE('',*,*,#641,.F.);
#845=ORIENTED_EDGE('',*,*,#658,.T.);
#846=ORIENTED_EDGE('',*,*,#659,.T.);
#847=ORIENTED_EDGE('',*,*,#660,.T.);
#848=ORIENTED_EDGE('',*,*,#661,.T.);
#849=ORIENTED_EDGE('',*,*,#659,.F.);
#850=ORIENTED_EDGE('',*,*,#662,.F.);
#851=ORIENTED_EDGE('',*,*,#663,.T.);
#852=ORIENTED_EDGE('',*,*,#664,.F.);
#853=ORIENTED_EDGE('',*,*,#665,.T.);
#854=ORIENTED_EDGE('',*,*,#666,.F.);
#855=ORIENTED_EDGE('',*,*,#667,.T.);
#856=ORIENTED_EDGE('',*,*,#668,.F.);
#857=ORIENTED_EDGE('',*,*,#669,.F.);
#858=ORIENTED_EDGE('',*,*,#670,.F.);
#859=ORIENTED_EDGE('',*,*,#658,.F.);
#860=ORIENTED_EDGE('',*,*,#671,.T.);
#861=ORIENTED_EDGE('',*,*,#672,.F.);
#862=ORIENTED_EDGE('',*,*,#655,.T.);
#863=ORIENTED_EDGE('',*,*,#673,.F.);
#864=ORIENTED_EDGE('',*,*,#674,.T.);
#865=ORIENTED_EDGE('',*,*,#675,.F.);
#866=ORIENTED_EDGE('',*,*,#668,.T.);
#867=ORIENTED_EDGE('',*,*,#676,.T.);
#868=ORIENTED_EDGE('',*,*,#677,.T.);
#869=ORIENTED_EDGE('',*,*,#678,.T.);
#870=ORIENTED_EDGE('',*,*,#679,.T.);
#871=ORIENTED_EDGE('',*,*,#680,.T.);
#872=ORIENTED_EDGE('',*,*,#681,.T.);
#873=ORIENTED_EDGE('',*,*,#682,.T.);
#874=ORIENTED_EDGE('',*,*,#683,.T.);
#875=ORIENTED_EDGE('',*,*,#684,.T.);
#876=ORIENTED_EDGE('',*,*,#685,.T.);
#877=ORIENTED_EDGE('',*,*,#686,.T.);
#878=ORIENTED_EDGE('',*,*,#687,.T.);
#879=ORIENTED_EDGE('',*,*,#688,.T.);
#880=ORIENTED_EDGE('',*,*,#662,.T.);
#881=ORIENTED_EDGE('',*,*,#689,.T.);
#882=ORIENTED_EDGE('',*,*,#690,.T.);
#883=ORIENTED_EDGE('',*,*,#691,.T.);
#884=ORIENTED_EDGE('',*,*,#692,.T.);
#885=ORIENTED_EDGE('',*,*,#675,.T.);
#886=ORIENTED_EDGE('',*,*,#693,.T.);
#887=ORIENTED_EDGE('',*,*,#694,.T.);
#888=ORIENTED_EDGE('',*,*,#669,.T.);
#889=ORIENTED_EDGE('',*,*,#693,.F.);
#890=ORIENTED_EDGE('',*,*,#674,.F.);
#891=ORIENTED_EDGE('',*,*,#695,.F.);
#892=ORIENTED_EDGE('',*,*,#696,.T.);
#893=ORIENTED_EDGE('',*,*,#697,.T.);
#894=ORIENTED_EDGE('',*,*,#698,.T.);
#895=ORIENTED_EDGE('',*,*,#699,.T.);
#896=ORIENTED_EDGE('',*,*,#700,.T.);
#897=ORIENTED_EDGE('',*,*,#673,.T.);
#898=ORIENTED_EDGE('',*,*,#654,.T.);
#899=ORIENTED_EDGE('',*,*,#701,.T.);
#900=ORIENTED_EDGE('',*,*,#695,.T.);
#901=ORIENTED_EDGE('',*,*,#672,.T.);
#902=ORIENTED_EDGE('',*,*,#702,.T.);
#903=ORIENTED_EDGE('',*,*,#703,.T.);
#904=ORIENTED_EDGE('',*,*,#656,.T.);
#905=ORIENTED_EDGE('',*,*,#661,.F.);
#906=ORIENTED_EDGE('',*,*,#704,.T.);
#907=ORIENTED_EDGE('',*,*,#702,.F.);
#908=ORIENTED_EDGE('',*,*,#671,.F.);
#909=ORIENTED_EDGE('',*,*,#705,.T.);
#910=ORIENTED_EDGE('',*,*,#706,.T.);
#911=ORIENTED_EDGE('',*,*,#707,.T.);
#912=ORIENTED_EDGE('',*,*,#708,.T.);
#913=ORIENTED_EDGE('',*,*,#666,.T.);
#914=ORIENTED_EDGE('',*,*,#709,.T.);
#915=ORIENTED_EDGE('',*,*,#710,.T.);
#916=ORIENTED_EDGE('',*,*,#711,.T.);
#917=ORIENTED_EDGE('',*,*,#709,.F.);
#918=ORIENTED_EDGE('',*,*,#665,.F.);
#919=ORIENTED_EDGE('',*,*,#712,.F.);
#920=ORIENTED_EDGE('',*,*,#713,.F.);
#921=ORIENTED_EDGE('',*,*,#664,.T.);
#922=ORIENTED_EDGE('',*,*,#714,.T.);
#923=ORIENTED_EDGE('',*,*,#715,.T.);
#924=ORIENTED_EDGE('',*,*,#712,.T.);
#925=ORIENTED_EDGE('',*,*,#714,.F.);
#926=ORIENTED_EDGE('',*,*,#663,.F.);
#927=ORIENTED_EDGE('',*,*,#688,.F.);
#928=ORIENTED_EDGE('',*,*,#716,.F.);
#929=ORIENTED_EDGE('',*,*,#717,.F.);
#930=ORIENTED_EDGE('',*,*,#718,.F.);
#931=ORIENTED_EDGE('',*,*,#699,.F.);
#932=ORIENTED_EDGE('',*,*,#719,.T.);
#933=ORIENTED_EDGE('',*,*,#707,.F.);
#934=ORIENTED_EDGE('',*,*,#720,.F.);
#935=ORIENTED_EDGE('',*,*,#721,.F.);
#936=ORIENTED_EDGE('',*,*,#722,.T.);
#937=ORIENTED_EDGE('',*,*,#723,.F.);
#938=ORIENTED_EDGE('',*,*,#724,.F.);
#939=ORIENTED_EDGE('',*,*,#700,.F.);
#940=ORIENTED_EDGE('',*,*,#718,.T.);
#941=ORIENTED_EDGE('',*,*,#725,.F.);
#942=ORIENTED_EDGE('',*,*,#719,.F.);
#943=ORIENTED_EDGE('',*,*,#698,.F.);
#944=ORIENTED_EDGE('',*,*,#726,.T.);
#945=ORIENTED_EDGE('',*,*,#708,.F.);
#946=ORIENTED_EDGE('',*,*,#722,.F.);
#947=ORIENTED_EDGE('',*,*,#727,.F.);
#948=ORIENTED_EDGE('',*,*,#728,.T.);
#949=ORIENTED_EDGE('',*,*,#729,.F.);
#950=ORIENTED_EDGE('',*,*,#726,.F.);
#951=ORIENTED_EDGE('',*,*,#697,.F.);
#952=ORIENTED_EDGE('',*,*,#724,.T.);
#953=ORIENTED_EDGE('',*,*,#705,.F.);
#954=ORIENTED_EDGE('',*,*,#728,.F.);
#955=ORIENTED_EDGE('',*,*,#730,.F.);
#956=ORIENTED_EDGE('',*,*,#731,.T.);
#957=ORIENTED_EDGE('',*,*,#706,.F.);
#958=ORIENTED_EDGE('',*,*,#731,.F.);
#959=ORIENTED_EDGE('',*,*,#732,.F.);
#960=ORIENTED_EDGE('',*,*,#720,.T.);
#961=ORIENTED_EDGE('',*,*,#711,.F.);
#962=ORIENTED_EDGE('',*,*,#733,.F.);
#963=ORIENTED_EDGE('',*,*,#676,.F.);
#964=ORIENTED_EDGE('',*,*,#667,.F.);
#965=ORIENTED_EDGE('',*,*,#733,.T.);
#966=ORIENTED_EDGE('',*,*,#710,.F.);
#967=ORIENTED_EDGE('',*,*,#713,.T.);
#968=ORIENTED_EDGE('',*,*,#715,.F.);
#969=ORIENTED_EDGE('',*,*,#716,.T.);
#970=ORIENTED_EDGE('',*,*,#687,.F.);
#971=ORIENTED_EDGE('',*,*,#734,.F.);
#972=ORIENTED_EDGE('',*,*,#735,.T.);
#973=ORIENTED_EDGE('',*,*,#736,.T.);
#974=ORIENTED_EDGE('',*,*,#737,.F.);
#975=ORIENTED_EDGE('',*,*,#738,.T.);
#976=ORIENTED_EDGE('',*,*,#739,.T.);
#977=ORIENTED_EDGE('',*,*,#740,.T.);
#978=ORIENTED_EDGE('',*,*,#677,.F.);
#979=ORIENTED_EDGE('',*,*,#692,.F.);
#980=ORIENTED_EDGE('',*,*,#741,.T.);
#981=ORIENTED_EDGE('',*,*,#742,.T.);
#982=ORIENTED_EDGE('',*,*,#741,.F.);
#983=ORIENTED_EDGE('',*,*,#742,.F.);
#984=ORIENTED_EDGE('',*,*,#691,.F.);
#985=ORIENTED_EDGE('',*,*,#743,.T.);
#986=ORIENTED_EDGE('',*,*,#744,.T.);
#987=ORIENTED_EDGE('',*,*,#743,.F.);
#988=ORIENTED_EDGE('',*,*,#744,.F.);
#989=ORIENTED_EDGE('',*,*,#690,.F.);
#990=ORIENTED_EDGE('',*,*,#745,.T.);
#991=ORIENTED_EDGE('',*,*,#746,.T.);
#992=ORIENTED_EDGE('',*,*,#745,.F.);
#993=ORIENTED_EDGE('',*,*,#746,.F.);
#994=ORIENTED_EDGE('',*,*,#689,.F.);
#995=ORIENTED_EDGE('',*,*,#747,.T.);
#996=ORIENTED_EDGE('',*,*,#748,.T.);
#997=ORIENTED_EDGE('',*,*,#747,.F.);
#998=ORIENTED_EDGE('',*,*,#748,.F.);
#999=ORIENTED_EDGE('',*,*,#643,.F.);
#1000=ORIENTED_EDGE('',*,*,#749,.T.);
#1001=ORIENTED_EDGE('',*,*,#750,.F.);
#1002=ORIENTED_EDGE('',*,*,#652,.F.);
#1003=ORIENTED_EDGE('',*,*,#648,.F.);
#1004=ORIENTED_EDGE('',*,*,#651,.T.);
#1005=ORIENTED_EDGE('',*,*,#751,.F.);
#1006=ORIENTED_EDGE('',*,*,#749,.F.);
#1007=ORIENTED_EDGE('',*,*,#752,.T.);
#1008=ORIENTED_EDGE('',*,*,#753,.T.);
#1009=ORIENTED_EDGE('',*,*,#754,.F.);
#1010=ORIENTED_EDGE('',*,*,#684,.F.);
#1011=ORIENTED_EDGE('',*,*,#755,.T.);
#1012=ORIENTED_EDGE('',*,*,#756,.T.);
#1013=ORIENTED_EDGE('',*,*,#752,.F.);
#1014=ORIENTED_EDGE('',*,*,#683,.F.);
#1015=ORIENTED_EDGE('',*,*,#757,.T.);
#1016=ORIENTED_EDGE('',*,*,#758,.T.);
#1017=ORIENTED_EDGE('',*,*,#755,.F.);
#1018=ORIENTED_EDGE('',*,*,#682,.F.);
#1019=ORIENTED_EDGE('',*,*,#759,.T.);
#1020=ORIENTED_EDGE('',*,*,#760,.T.);
#1021=ORIENTED_EDGE('',*,*,#757,.F.);
#1022=ORIENTED_EDGE('',*,*,#681,.F.);
#1023=ORIENTED_EDGE('',*,*,#650,.T.);
#1024=ORIENTED_EDGE('',*,*,#653,.T.);
#1025=ORIENTED_EDGE('',*,*,#750,.T.);
#1026=ORIENTED_EDGE('',*,*,#751,.T.);
#1027=ORIENTED_EDGE('',*,*,#761,.F.);
#1028=ORIENTED_EDGE('',*,*,#762,.T.);
#1029=ORIENTED_EDGE('',*,*,#759,.F.);
#1030=ORIENTED_EDGE('',*,*,#680,.F.);
#1031=ORIENTED_EDGE('',*,*,#762,.F.);
#1032=ORIENTED_EDGE('',*,*,#763,.F.);
#1033=ORIENTED_EDGE('',*,*,#753,.F.);
#1034=ORIENTED_EDGE('',*,*,#756,.F.);
#1035=ORIENTED_EDGE('',*,*,#758,.F.);
#1036=ORIENTED_EDGE('',*,*,#760,.F.);
#1037=ORIENTED_EDGE('',*,*,#764,.F.);
#1038=ORIENTED_EDGE('',*,*,#765,.T.);
#1039=ORIENTED_EDGE('',*,*,#766,.F.);
#1040=ORIENTED_EDGE('',*,*,#765,.F.);
#1041=ORIENTED_EDGE('',*,*,#767,.F.);
#1042=ORIENTED_EDGE('',*,*,#736,.F.);
#1043=ORIENTED_EDGE('',*,*,#768,.F.);
#1044=ORIENTED_EDGE('',*,*,#769,.F.);
#1045=ORIENTED_EDGE('',*,*,#770,.F.);
#1046=ORIENTED_EDGE('',*,*,#769,.T.);
#1047=ORIENTED_EDGE('',*,*,#771,.F.);
#1048=ORIENTED_EDGE('',*,*,#772,.F.);
#1049=ORIENTED_EDGE('',*,*,#771,.T.);
#1050=ORIENTED_EDGE('',*,*,#768,.T.);
#1051=ORIENTED_EDGE('',*,*,#735,.F.);
#1052=ORIENTED_EDGE('',*,*,#773,.F.);
#1053=ORIENTED_EDGE('',*,*,#764,.T.);
#1054=ORIENTED_EDGE('',*,*,#767,.T.);
#1055=ORIENTED_EDGE('',*,*,#770,.T.);
#1056=ORIENTED_EDGE('',*,*,#774,.T.);
#1057=ORIENTED_EDGE('',*,*,#775,.T.);
#1058=ORIENTED_EDGE('',*,*,#776,.T.);
#1059=ORIENTED_EDGE('',*,*,#777,.T.);
#1060=ORIENTED_EDGE('',*,*,#778,.T.);
#1061=ORIENTED_EDGE('',*,*,#779,.T.);
#1062=ORIENTED_EDGE('',*,*,#780,.T.);
#1063=ORIENTED_EDGE('',*,*,#781,.T.);
#1064=ORIENTED_EDGE('',*,*,#782,.T.);
#1065=ORIENTED_EDGE('',*,*,#737,.T.);
#1066=ORIENTED_EDGE('',*,*,#783,.F.);
#1067=ORIENTED_EDGE('',*,*,#784,.T.);
#1068=ORIENTED_EDGE('',*,*,#785,.F.);
#1069=ORIENTED_EDGE('',*,*,#784,.F.);
#1070=ORIENTED_EDGE('',*,*,#778,.F.);
#1071=ORIENTED_EDGE('',*,*,#786,.F.);
#1072=ORIENTED_EDGE('',*,*,#787,.F.);
#1073=ORIENTED_EDGE('',*,*,#788,.F.);
#1074=ORIENTED_EDGE('',*,*,#779,.F.);
#1075=ORIENTED_EDGE('',*,*,#788,.T.);
#1076=ORIENTED_EDGE('',*,*,#789,.F.);
#1077=ORIENTED_EDGE('',*,*,#790,.F.);
#1078=ORIENTED_EDGE('',*,*,#789,.T.);
#1079=ORIENTED_EDGE('',*,*,#787,.T.);
#1080=ORIENTED_EDGE('',*,*,#791,.F.);
#1081=ORIENTED_EDGE('',*,*,#792,.F.);
#1082=ORIENTED_EDGE('',*,*,#783,.T.);
#1083=ORIENTED_EDGE('',*,*,#766,.T.);
#1084=ORIENTED_EDGE('',*,*,#793,.F.);
#1085=ORIENTED_EDGE('',*,*,#794,.T.);
#1086=ORIENTED_EDGE('',*,*,#795,.F.);
#1087=ORIENTED_EDGE('',*,*,#794,.F.);
#1088=ORIENTED_EDGE('',*,*,#775,.F.);
#1089=ORIENTED_EDGE('',*,*,#796,.F.);
#1090=ORIENTED_EDGE('',*,*,#797,.F.);
#1091=ORIENTED_EDGE('',*,*,#798,.F.);
#1092=ORIENTED_EDGE('',*,*,#776,.F.);
#1093=ORIENTED_EDGE('',*,*,#798,.T.);
#1094=ORIENTED_EDGE('',*,*,#799,.F.);
#1095=ORIENTED_EDGE('',*,*,#800,.F.);
#1096=ORIENTED_EDGE('',*,*,#801,.F.);
#1097=ORIENTED_EDGE('',*,*,#802,.F.);
#1098=ORIENTED_EDGE('',*,*,#799,.T.);
#1099=ORIENTED_EDGE('',*,*,#797,.T.);
#1100=ORIENTED_EDGE('',*,*,#793,.T.);
#1101=ORIENTED_EDGE('',*,*,#773,.T.);
#1102=ORIENTED_EDGE('',*,*,#734,.T.);
#1103=ORIENTED_EDGE('',*,*,#686,.F.);
#1104=ORIENTED_EDGE('',*,*,#803,.F.);
#1105=ORIENTED_EDGE('',*,*,#801,.T.);
#1106=ORIENTED_EDGE('',*,*,#796,.T.);
#1107=ORIENTED_EDGE('',*,*,#774,.F.);
#1108=ORIENTED_EDGE('',*,*,#772,.T.);
#1109=ORIENTED_EDGE('',*,*,#730,.T.);
#1110=ORIENTED_EDGE('',*,*,#727,.T.);
#1111=ORIENTED_EDGE('',*,*,#721,.T.);
#1112=ORIENTED_EDGE('',*,*,#732,.T.);
#1113=ORIENTED_EDGE('',*,*,#795,.T.);
#1114=ORIENTED_EDGE('',*,*,#804,.F.);
#1115=ORIENTED_EDGE('',*,*,#805,.T.);
#1116=ORIENTED_EDGE('',*,*,#806,.F.);
#1117=ORIENTED_EDGE('',*,*,#805,.F.);
#1118=ORIENTED_EDGE('',*,*,#781,.F.);
#1119=ORIENTED_EDGE('',*,*,#807,.F.);
#1120=ORIENTED_EDGE('',*,*,#808,.F.);
#1121=ORIENTED_EDGE('',*,*,#809,.F.);
#1122=ORIENTED_EDGE('',*,*,#782,.F.);
#1123=ORIENTED_EDGE('',*,*,#809,.T.);
#1124=ORIENTED_EDGE('',*,*,#810,.F.);
#1125=ORIENTED_EDGE('',*,*,#738,.F.);
#1126=ORIENTED_EDGE('',*,*,#811,.F.);
#1127=ORIENTED_EDGE('',*,*,#739,.F.);
#1128=ORIENTED_EDGE('',*,*,#810,.T.);
#1129=ORIENTED_EDGE('',*,*,#808,.T.);
#1130=ORIENTED_EDGE('',*,*,#804,.T.);
#1131=ORIENTED_EDGE('',*,*,#785,.T.);
#1132=ORIENTED_EDGE('',*,*,#761,.T.);
#1133=ORIENTED_EDGE('',*,*,#679,.F.);
#1134=ORIENTED_EDGE('',*,*,#812,.F.);
#1135=ORIENTED_EDGE('',*,*,#791,.T.);
#1136=ORIENTED_EDGE('',*,*,#786,.T.);
#1137=ORIENTED_EDGE('',*,*,#777,.F.);
#1138=ORIENTED_EDGE('',*,*,#800,.T.);
#1139=ORIENTED_EDGE('',*,*,#802,.T.);
#1140=ORIENTED_EDGE('',*,*,#803,.T.);
#1141=ORIENTED_EDGE('',*,*,#685,.F.);
#1142=ORIENTED_EDGE('',*,*,#754,.T.);
#1143=ORIENTED_EDGE('',*,*,#763,.T.);
#1144=ORIENTED_EDGE('',*,*,#792,.T.);
#1145=ORIENTED_EDGE('',*,*,#812,.T.);
#1146=ORIENTED_EDGE('',*,*,#678,.F.);
#1147=ORIENTED_EDGE('',*,*,#740,.F.);
#1148=ORIENTED_EDGE('',*,*,#811,.T.);
#1149=ORIENTED_EDGE('',*,*,#807,.T.);
#1150=ORIENTED_EDGE('',*,*,#780,.F.);
#1151=ORIENTED_EDGE('',*,*,#790,.T.);
#1152=ORIENTED_EDGE('',*,*,#729,.T.);
#1153=ORIENTED_EDGE('',*,*,#723,.T.);
#1154=ORIENTED_EDGE('',*,*,#717,.T.);
#1155=ORIENTED_EDGE('',*,*,#725,.T.);
#1156=ORIENTED_EDGE('',*,*,#806,.T.);
#1157=ORIENTED_EDGE('',*,*,#660,.F.);
#1158=ORIENTED_EDGE('',*,*,#670,.T.);
#1159=ORIENTED_EDGE('',*,*,#694,.F.);
#1160=ORIENTED_EDGE('',*,*,#696,.F.);
#1161=ORIENTED_EDGE('',*,*,#701,.F.);
#1162=ORIENTED_EDGE('',*,*,#657,.T.);
#1163=ORIENTED_EDGE('',*,*,#703,.F.);
#1164=ORIENTED_EDGE('',*,*,#704,.F.);
#1165=PLANE('',#1305);
#1166=PLANE('',#1306);
#1167=PLANE('',#1307);
#1168=PLANE('',#1308);
#1169=PLANE('',#1309);
#1170=PLANE('',#1310);
#1171=PLANE('',#1311);
#1172=PLANE('',#1315);
#1173=PLANE('',#1318);
#1174=PLANE('',#1328);
#1175=PLANE('',#1333);
#1176=PLANE('',#1336);
#1177=PLANE('',#1339);
#1178=PLANE('',#1340);
#1179=PLANE('',#1341);
#1180=PLANE('',#1342);
#1181=PLANE('',#1343);
#1182=PLANE('',#1344);
#1183=PLANE('',#1345);
#1184=PLANE('',#1346);
#1185=PLANE('',#1347);
#1186=PLANE('',#1348);
#1187=PLANE('',#1349);
#1188=PLANE('',#1352);
#1189=PLANE('',#1355);
#1190=PLANE('',#1358);
#1191=PLANE('',#1361);
#1192=PLANE('',#1362);
#1193=PLANE('',#1363);
#1194=PLANE('',#1364);
#1195=PLANE('',#1365);
#1196=PLANE('',#1366);
#1197=PLANE('',#1367);
#1198=PLANE('',#1368);
#1199=PLANE('',#1369);
#1200=PLANE('',#1373);
#1201=PLANE('',#1374);
#1202=PLANE('',#1375);
#1203=PLANE('',#1376);
#1204=PLANE('',#1380);
#1205=PLANE('',#1381);
#1206=PLANE('',#1382);
#1207=PLANE('',#1383);
#1208=PLANE('',#1387);
#1209=PLANE('',#1388);
#1210=PLANE('',#1389);
#1211=PLANE('',#1390);
#1212=PLANE('',#1391);
#1213=PLANE('',#1395);
#1214=PLANE('',#1396);
#1215=PLANE('',#1397);
#1216=PLANE('',#1398);
#1217=PLANE('',#1399);
#1218=PLANE('',#1400);
#1219=PLANE('',#1401);
#1220=PLANE('',#1402);
#1221=ADVANCED_FACE('',(#71),#1165,.T.);
#1222=ADVANCED_FACE('',(#72),#1166,.T.);
#1223=ADVANCED_FACE('',(#73),#1167,.T.);
#1224=ADVANCED_FACE('',(#74),#1168,.T.);
#1225=ADVANCED_FACE('',(#75),#1169,.F.);
#1226=ADVANCED_FACE('',(#76),#1170,.F.);
#1227=ADVANCED_FACE('',(#77,#57),#1171,.T.);
#1228=ADVANCED_FACE('',(#78),#43,.T.);
#1229=ADVANCED_FACE('',(#79),#1172,.T.);
#1230=ADVANCED_FACE('',(#80,#58,#59,#60,#61),#1173,.T.);
#1231=ADVANCED_FACE('',(#81),#44,.T.);
#1232=ADVANCED_FACE('',(#82,#62),#1174,.T.);
#1233=ADVANCED_FACE('',(#83),#45,.T.);
#1234=ADVANCED_FACE('',(#84),#46,.T.);
#1235=ADVANCED_FACE('',(#85,#63),#1175,.T.);
#1236=ADVANCED_FACE('',(#86),#47,.F.);
#1237=ADVANCED_FACE('',(#87),#1176,.F.);
#1238=ADVANCED_FACE('',(#88),#48,.F.);
#1239=ADVANCED_FACE('',(#89),#1177,.F.);
#1240=ADVANCED_FACE('',(#90),#1178,.F.);
#1241=ADVANCED_FACE('',(#91),#1179,.F.);
#1242=ADVANCED_FACE('',(#92),#1180,.F.);
#1243=ADVANCED_FACE('',(#93),#1181,.F.);
#1244=ADVANCED_FACE('',(#94),#1182,.F.);
#1245=ADVANCED_FACE('',(#95),#1183,.F.);
#1246=ADVANCED_FACE('',(#96),#1184,.F.);
#1247=ADVANCED_FACE('',(#97),#1185,.F.);
#1248=ADVANCED_FACE('',(#98),#1186,.F.);
#1249=ADVANCED_FACE('',(#99),#1187,.T.);
#1250=ADVANCED_FACE('',(#100),#49,.F.);
#1251=ADVANCED_FACE('',(#101),#1188,.T.);
#1252=ADVANCED_FACE('',(#102),#50,.F.);
#1253=ADVANCED_FACE('',(#103),#1189,.T.);
#1254=ADVANCED_FACE('',(#104),#51,.F.);
#1255=ADVANCED_FACE('',(#105),#1190,.T.);
#1256=ADVANCED_FACE('',(#106),#52,.F.);
#1257=ADVANCED_FACE('',(#107),#1191,.T.);
#1258=ADVANCED_FACE('',(#108),#1192,.F.);
#1259=ADVANCED_FACE('',(#109),#1193,.F.);
#1260=ADVANCED_FACE('',(#110),#1194,.F.);
#1261=ADVANCED_FACE('',(#111),#1195,.F.);
#1262=ADVANCED_FACE('',(#112),#1196,.F.);
#1263=ADVANCED_FACE('',(#113,#64),#1197,.F.);
#1264=ADVANCED_FACE('',(#114),#1198,.F.);
#1265=ADVANCED_FACE('',(#115),#1199,.F.);
#1266=ADVANCED_FACE('',(#116),#53,.F.);
#1267=ADVANCED_FACE('',(#117),#1200,.T.);
#1268=ADVANCED_FACE('',(#118),#1201,.T.);
#1269=ADVANCED_FACE('',(#119,#65),#1202,.T.);
#1270=ADVANCED_FACE('',(#120),#1203,.T.);
#1271=ADVANCED_FACE('',(#121),#54,.F.);
#1272=ADVANCED_FACE('',(#122),#1204,.T.);
#1273=ADVANCED_FACE('',(#123),#1205,.T.);
#1274=ADVANCED_FACE('',(#124,#66),#1206,.T.);
#1275=ADVANCED_FACE('',(#125),#1207,.T.);
#1276=ADVANCED_FACE('',(#126),#55,.F.);
#1277=ADVANCED_FACE('',(#127),#1208,.T.);
#1278=ADVANCED_FACE('',(#128),#1209,.T.);
#1279=ADVANCED_FACE('',(#129,#67),#1210,.T.);
#1280=ADVANCED_FACE('',(#130,#68),#1211,.T.);
#1281=ADVANCED_FACE('',(#131),#1212,.T.);
#1282=ADVANCED_FACE('',(#132),#56,.F.);
#1283=ADVANCED_FACE('',(#133),#1213,.T.);
#1284=ADVANCED_FACE('',(#134),#1214,.T.);
#1285=ADVANCED_FACE('',(#135,#69),#1215,.T.);
#1286=ADVANCED_FACE('',(#136),#1216,.T.);
#1287=ADVANCED_FACE('',(#137),#1217,.T.);
#1288=ADVANCED_FACE('',(#138,#70),#1218,.T.);
#1289=ADVANCED_FACE('',(#139),#1219,.T.);
#1290=ADVANCED_FACE('',(#140),#1220,.T.);
#1291=CLOSED_SHELL('',(#1221,#1222,#1223,#1224,#1225,#1226,#1227,#1228,
#1229,#1230,#1231,#1232,#1233,#1234,#1235,#1236,#1237,#1238,#1239,#1240,
#1241,#1242,#1243,#1244,#1245,#1246,#1247,#1248,#1249,#1250,#1251,#1252,
#1253,#1254,#1255,#1256,#1257,#1258,#1259,#1260,#1261,#1262,#1263,#1264,
#1265,#1266,#1267,#1268,#1269,#1270,#1271,#1272,#1273,#1274,#1275,#1276,
#1277,#1278,#1279,#1280,#1281,#1282,#1283,#1284,#1285,#1286,#1287,#1288,
#1289,#1290));
#1292=DERIVED_UNIT_ELEMENT(#1294,1.);
#1293=DERIVED_UNIT_ELEMENT(#2117,-3.);
#1294=(
MASS_UNIT()
NAMED_UNIT(*)
SI_UNIT(.KILO.,.GRAM.)
);
#1295=DERIVED_UNIT((#1292,#1293));
#1296=MEASURE_REPRESENTATION_ITEM('density measure',
POSITIVE_RATIO_MEASURE(7850.),#1295);
#1297=PROPERTY_DEFINITION_REPRESENTATION(#1302,#1299);
#1298=PROPERTY_DEFINITION_REPRESENTATION(#1303,#1300);
#1299=REPRESENTATION('material name',(#1301),#2114);
#1300=REPRESENTATION('density',(#1296),#2114);
#1301=DESCRIPTIVE_REPRESENTATION_ITEM('Steel','Steel');
#1302=PROPERTY_DEFINITION('material property','material name',#2124);
#1303=PROPERTY_DEFINITION('material property','density of part',#2124);
#1304=AXIS2_PLACEMENT_3D('',#1749,#1403,#1404);
#1305=AXIS2_PLACEMENT_3D('',#1750,#1405,#1406);
#1306=AXIS2_PLACEMENT_3D('',#1759,#1411,#1412);
#1307=AXIS2_PLACEMENT_3D('',#1765,#1416,#1417);
#1308=AXIS2_PLACEMENT_3D('',#1771,#1421,#1422);
#1309=AXIS2_PLACEMENT_3D('',#1774,#1425,#1426);
#1310=AXIS2_PLACEMENT_3D('',#1780,#1430,#1431);
#1311=AXIS2_PLACEMENT_3D('',#1784,#1434,#1435);
#1312=AXIS2_PLACEMENT_3D('',#1793,#1440,#1441);
#1313=AXIS2_PLACEMENT_3D('',#1796,#1442,#1443);
#1314=AXIS2_PLACEMENT_3D('',#1800,#1445,#1446);
#1315=AXIS2_PLACEMENT_3D('',#1802,#1448,#1449);
#1316=AXIS2_PLACEMENT_3D('',#1808,#1452,#1453);
#1317=AXIS2_PLACEMENT_3D('',#1812,#1455,#1456);
#1318=AXIS2_PLACEMENT_3D('',#1820,#1461,#1462);
#1319=AXIS2_PLACEMENT_3D('',#1823,#1464,#1465);
#1320=AXIS2_PLACEMENT_3D('',#1825,#1466,#1467);
#1321=AXIS2_PLACEMENT_3D('',#1828,#1469,#1470);
#1322=AXIS2_PLACEMENT_3D('',#1855,#1484,#1485);
#1323=AXIS2_PLACEMENT_3D('',#1857,#1486,#1487);
#1324=AXIS2_PLACEMENT_3D('',#1859,#1488,#1489);
#1325=AXIS2_PLACEMENT_3D('',#1861,#1490,#1491);
#1326=AXIS2_PLACEMENT_3D('',#1862,#1492,#1493);
#1327=AXIS2_PLACEMENT_3D('',#1865,#1495,#1496);
#1328=AXIS2_PLACEMENT_3D('',#1866,#1497,#1498);
#1329=AXIS2_PLACEMENT_3D('',#1878,#1505,#1506);
#1330=AXIS2_PLACEMENT_3D('',#1879,#1507,#1508);
#1331=AXIS2_PLACEMENT_3D('',#1880,#1509,#1510);
#1332=AXIS2_PLACEMENT_3D('',#1883,#1512,#1513);
#1333=AXIS2_PLACEMENT_3D('',#1884,#1514,#1515);
#1334=AXIS2_PLACEMENT_3D('',#1894,#1521,#1522);
#1335=AXIS2_PLACEMENT_3D('',#1898,#1524,#1525);
#1336=AXIS2_PLACEMENT_3D('',#1900,#1527,#1528);
#1337=AXIS2_PLACEMENT_3D('',#1904,#1531,#1532);
#1338=AXIS2_PLACEMENT_3D('',#1907,#1534,#1535);
#1339=AXIS2_PLACEMENT_3D('',#1908,#1536,#1537);
#1340=AXIS2_PLACEMENT_3D('',#1910,#1539,#1540);
#1341=AXIS2_PLACEMENT_3D('',#1916,#1544,#1545);
#1342=AXIS2_PLACEMENT_3D('',#1922,#1549,#1550);
#1343=AXIS2_PLACEMENT_3D('',#1926,#1553,#1554);
#1344=AXIS2_PLACEMENT_3D('',#1930,#1557,#1558);
#1345=AXIS2_PLACEMENT_3D('',#1934,#1561,#1562);
#1346=AXIS2_PLACEMENT_3D('',#1936,#1564,#1565);
#1347=AXIS2_PLACEMENT_3D('',#1940,#1568,#1569);
#1348=AXIS2_PLACEMENT_3D('',#1942,#1571,#1572);
#1349=AXIS2_PLACEMENT_3D('',#1944,#1574,#1575);
#1350=AXIS2_PLACEMENT_3D('',#1958,#1583,#1584);
#1351=AXIS2_PLACEMENT_3D('',#1961,#1586,#1587);
#1352=AXIS2_PLACEMENT_3D('',#1962,#1588,#1589);
#1353=AXIS2_PLACEMENT_3D('',#1963,#1590,#1591);
#1354=AXIS2_PLACEMENT_3D('',#1966,#1593,#1594);
#1355=AXIS2_PLACEMENT_3D('',#1967,#1595,#1596);
#1356=AXIS2_PLACEMENT_3D('',#1968,#1597,#1598);
#1357=AXIS2_PLACEMENT_3D('',#1971,#1600,#1601);
#1358=AXIS2_PLACEMENT_3D('',#1972,#1602,#1603);
#1359=AXIS2_PLACEMENT_3D('',#1973,#1604,#1605);
#1360=AXIS2_PLACEMENT_3D('',#1976,#1607,#1608);
#1361=AXIS2_PLACEMENT_3D('',#1977,#1609,#1610);
#1362=AXIS2_PLACEMENT_3D('',#1978,#1611,#1612);
#1363=AXIS2_PLACEMENT_3D('',#1982,#1615,#1616);
#1364=AXIS2_PLACEMENT_3D('',#1984,#1618,#1619);
#1365=AXIS2_PLACEMENT_3D('',#1990,#1623,#1624);
#1366=AXIS2_PLACEMENT_3D('',#1994,#1627,#1628);
#1367=AXIS2_PLACEMENT_3D('',#1998,#1631,#1632);
#1368=AXIS2_PLACEMENT_3D('',#2002,#1635,#1636);
#1369=AXIS2_PLACEMENT_3D('',#2006,#1639,#1640);
#1370=AXIS2_PLACEMENT_3D('',#2008,#1642,#1643);
#1371=AXIS2_PLACEMENT_3D('',#2010,#1644,#1645);
#1372=AXIS2_PLACEMENT_3D('',#2013,#1647,#1648);
#1373=AXIS2_PLACEMENT_3D('',#2014,#1649,#1650);
#1374=AXIS2_PLACEMENT_3D('',#2020,#1654,#1655);
#1375=AXIS2_PLACEMENT_3D('',#2026,#1659,#1660);
#1376=AXIS2_PLACEMENT_3D('',#2028,#1662,#1663);
#1377=AXIS2_PLACEMENT_3D('',#2046,#1673,#1674);
#1378=AXIS2_PLACEMENT_3D('',#2048,#1675,#1676);
#1379=AXIS2_PLACEMENT_3D('',#2051,#1678,#1679);
#1380=AXIS2_PLACEMENT_3D('',#2052,#1680,#1681);
#1381=AXIS2_PLACEMENT_3D('',#2058,#1685,#1686);
#1382=AXIS2_PLACEMENT_3D('',#2062,#1689,#1690);
#1383=AXIS2_PLACEMENT_3D('',#2066,#1693,#1694);
#1384=AXIS2_PLACEMENT_3D('',#2067,#1695,#1696);
#1385=AXIS2_PLACEMENT_3D('',#2069,#1697,#1698);
#1386=AXIS2_PLACEMENT_3D('',#2072,#1700,#1701);
#1387=AXIS2_PLACEMENT_3D('',#2073,#1702,#1703);
#1388=AXIS2_PLACEMENT_3D('',#2079,#1707,#1708);
#1389=AXIS2_PLACEMENT_3D('',#2083,#1711,#1712);
#1390=AXIS2_PLACEMENT_3D('',#2087,#1715,#1716);
#1391=AXIS2_PLACEMENT_3D('',#2089,#1718,#1719);
#1392=AXIS2_PLACEMENT_3D('',#2090,#1720,#1721);
#1393=AXIS2_PLACEMENT_3D('',#2092,#1722,#1723);
#1394=AXIS2_PLACEMENT_3D('',#2095,#1725,#1726);
#1395=AXIS2_PLACEMENT_3D('',#2096,#1727,#1728);
#1396=AXIS2_PLACEMENT_3D('',#2102,#1732,#1733);
#1397=AXIS2_PLACEMENT_3D('',#2104,#1735,#1736);
#1398=AXIS2_PLACEMENT_3D('',#2106,#1738,#1739);
#1399=AXIS2_PLACEMENT_3D('',#2107,#1740,#1741);
#1400=AXIS2_PLACEMENT_3D('',#2109,#1743,#1744);
#1401=AXIS2_PLACEMENT_3D('',#2110,#1745,#1746);
#1402=AXIS2_PLACEMENT_3D('',#2111,#1747,#1748);
#1403=DIRECTION('axis',(0.,0.,1.));
#1404=DIRECTION('refdir',(1.,0.,0.));
#1405=DIRECTION('center_axis',(0.,-0.707106781186548,-0.707106781186548));
#1406=DIRECTION('ref_axis',(-1.,0.,0.));
#1407=DIRECTION('',(-1.,0.,0.));
#1408=DIRECTION('',(0.577350269189626,0.577350269189626,-0.577350269189626));
#1409=DIRECTION('',(1.,0.,0.));
#1410=DIRECTION('',(-0.577350269189626,0.577350269189626,-0.577350269189626));
#1411=DIRECTION('center_axis',(0.707106781186548,-0.707106781186548,0.));
#1412=DIRECTION('ref_axis',(0.,0.,-1.));
#1413=DIRECTION('',(0.,0.,-1.));
#1414=DIRECTION('',(0.577350269189626,0.577350269189626,0.577350269189626));
#1415=DIRECTION('',(0.,0.,1.));
#1416=DIRECTION('center_axis',(-0.707106781186548,-0.707106781186548,1.75429324992601E-16));
#1417=DIRECTION('ref_axis',(2.48094530642493E-16,0.,1.));
#1418=DIRECTION('',(-2.48094530642493E-16,0.,-1.));
#1419=DIRECTION('',(0.577350269189626,-0.577350269189626,-0.577350269189626));
#1420=DIRECTION('',(2.48094530642493E-16,0.,1.));
#1421=DIRECTION('center_axis',(0.,-0.707106781186548,0.707106781186548));
#1422=DIRECTION('ref_axis',(1.,0.,0.));
#1423=DIRECTION('',(1.,0.,0.));
#1424=DIRECTION('',(-1.,0.,0.));
#1425=DIRECTION('center_axis',(1.,0.,-2.48094530642493E-16));
#1426=DIRECTION('ref_axis',(-2.48094530642493E-16,0.,-1.));
#1427=DIRECTION('',(0.,1.,0.));
#1428=DIRECTION('',(2.48094530642493E-16,6.53969017062007E-31,1.));
#1429=DIRECTION('',(0.,1.,0.));
#1430=DIRECTION('center_axis',(0.,0.,1.));
#1431=DIRECTION('ref_axis',(1.,0.,0.));
#1432=DIRECTION('',(0.,1.,0.));
#1433=DIRECTION('',(-1.,-2.63596708628931E-15,0.));
#1434=DIRECTION('center_axis',(0.,-1.,0.));
#1435=DIRECTION('ref_axis',(0.,0.,-1.));
#1436=DIRECTION('',(0.,0.,-1.));
#1437=DIRECTION('',(1.,0.,0.));
#1438=DIRECTION('',(0.,0.,1.));
#1439=DIRECTION('',(-1.,0.,0.));
#1440=DIRECTION('center_axis',(0.,0.,1.));
#1441=DIRECTION('ref_axis',(-0.707106781186546,0.707106781186549,0.));
#1442=DIRECTION('center_axis',(0.,0.,-1.));
#1443=DIRECTION('ref_axis',(-0.707106781186546,0.707106781186549,0.));
#1444=DIRECTION('',(0.,0.,-1.));
#1445=DIRECTION('center_axis',(0.,0.,1.));
#1446=DIRECTION('ref_axis',(-0.707106781186546,0.707106781186549,0.));
#1447=DIRECTION('',(0.,0.,1.));
#1448=DIRECTION('center_axis',(0.,1.,0.));
#1449=DIRECTION('ref_axis',(0.,0.,1.));
#1450=DIRECTION('',(-1.,0.,0.));
#1451=DIRECTION('',(0.,0.,-1.));
#1452=DIRECTION('center_axis',(0.,1.,0.));
#1453=DIRECTION('ref_axis',(-0.707106781186546,0.,-0.707106781186549));
#1454=DIRECTION('',(1.,0.,0.));
#1455=DIRECTION('center_axis',(0.,1.,0.));
#1456=DIRECTION('ref_axis',(0.707106781186546,0.,-0.707106781186549));
#1457=DIRECTION('',(0.,0.,1.));
#1458=DIRECTION('',(-1.,0.,0.));
#1459=DIRECTION('',(0.,0.,1.));
#1460=DIRECTION('',(1.,0.,0.));
#1461=DIRECTION('center_axis',(0.,0.,1.));
#1462=DIRECTION('ref_axis',(1.,0.,0.));
#1463=DIRECTION('',(0.,-1.,0.));
#1464=DIRECTION('center_axis',(0.,0.,-1.));
#1465=DIRECTION('ref_axis',(-0.707106781186546,-0.707106781186549,0.));
#1466=DIRECTION('center_axis',(0.,0.,-1.));
#1467=DIRECTION('ref_axis',(0.707106781186546,-0.707106781186549,0.));
#1468=DIRECTION('',(0.,1.,0.));
#1469=DIRECTION('center_axis',(0.,0.,-1.));
#1470=DIRECTION('ref_axis',(0.707106781186546,0.707106781186549,0.));
#1471=DIRECTION('',(0.,-1.,0.));
#1472=DIRECTION('',(1.,0.,0.));
#1473=DIRECTION('',(0.,-1.,0.));
#1474=DIRECTION('',(-1.,0.,0.));
#1475=DIRECTION('',(1.66182238687873E-15,-1.,0.));
#1476=DIRECTION('',(-1.,-2.63596708628931E-15,0.));
#1477=DIRECTION('',(-7.83470146601897E-15,1.,0.));
#1478=DIRECTION('',(1.,2.65014752642719E-15,0.));
#1479=DIRECTION('',(-3.32364477375747E-15,1.,0.));
#1480=DIRECTION('',(-1.,0.,0.));
#1481=DIRECTION('',(0.,1.,0.));
#1482=DIRECTION('',(1.,0.,0.));
#1483=DIRECTION('',(0.,1.,0.));
#1484=DIRECTION('center_axis',(0.,0.,-1.));
#1485=DIRECTION('ref_axis',(-1.,0.,0.));
#1486=DIRECTION('center_axis',(0.,0.,-1.));
#1487=DIRECTION('ref_axis',(-1.,0.,0.));
#1488=DIRECTION('center_axis',(0.,0.,-1.));
#1489=DIRECTION('ref_axis',(-1.,0.,0.));
#1490=DIRECTION('center_axis',(0.,0.,-1.));
#1491=DIRECTION('ref_axis',(-1.,0.,0.));
#1492=DIRECTION('center_axis',(0.,0.,1.));
#1493=DIRECTION('ref_axis',(0.707106781186546,0.707106781186549,0.));
#1494=DIRECTION('',(0.,0.,-1.));
#1495=DIRECTION('center_axis',(0.,0.,1.));
#1496=DIRECTION('ref_axis',(0.707106781186546,0.707106781186549,0.));
#1497=DIRECTION('center_axis',(1.,0.,0.));
#1498=DIRECTION('ref_axis',(0.,0.,-1.));
#1499=DIRECTION('',(0.,0.,1.));
#1500=DIRECTION('',(0.,1.,0.));
#1501=DIRECTION('',(0.,1.,0.));
#1502=DIRECTION('',(0.,0.,-1.));
#1503=DIRECTION('',(0.,-1.,0.));
#1504=DIRECTION('',(0.,0.,1.));
#1505=DIRECTION('center_axis',(0.,0.,1.));
#1506=DIRECTION('ref_axis',(0.707106781186546,-0.707106781186549,0.));
#1507=DIRECTION('center_axis',(0.,0.,1.));
#1508=DIRECTION('ref_axis',(0.707106781186546,-0.707106781186549,0.));
#1509=DIRECTION('center_axis',(0.,0.,1.));
#1510=DIRECTION('ref_axis',(-0.707106781186546,-0.707106781186549,0.));
#1511=DIRECTION('',(0.,0.,-1.));
#1512=DIRECTION('center_axis',(0.,0.,1.));
#1513=DIRECTION('ref_axis',(-0.707106781186546,-0.707106781186549,0.));
#1514=DIRECTION('center_axis',(-1.,0.,0.));
#1515=DIRECTION('ref_axis',(0.,0.,1.));
#1516=DIRECTION('',(0.,-1.,0.));
#1517=DIRECTION('',(0.,-1.,0.));
#1518=DIRECTION('',(0.,0.,-1.));
#1519=DIRECTION('',(0.,1.,0.));
#1520=DIRECTION('',(0.,0.,1.));
#1521=DIRECTION('center_axis',(0.,-1.,0.));
#1522=DIRECTION('ref_axis',(0.707106781186546,0.,-0.707106781186549));
#1523=DIRECTION('',(0.,-1.,0.));
#1524=DIRECTION('center_axis',(0.,-1.,0.));
#1525=DIRECTION('ref_axis',(0.707106781186546,0.,-0.707106781186549));
#1526=DIRECTION('',(0.,1.,0.));
#1527=DIRECTION('center_axis',(0.,0.,-1.));
#1528=DIRECTION('ref_axis',(1.,0.,0.));
#1529=DIRECTION('',(0.,1.,0.));
#1530=DIRECTION('',(-1.,0.,0.));
#1531=DIRECTION('center_axis',(0.,-1.,0.));
#1532=DIRECTION('ref_axis',(-0.707106781186546,0.,-0.707106781186549));
#1533=DIRECTION('',(0.,-1.,0.));
#1534=DIRECTION('center_axis',(0.,-1.,0.));
#1535=DIRECTION('ref_axis',(-0.707106781186546,0.,-0.707106781186549));
#1536=DIRECTION('center_axis',(-1.,0.,0.));
#1537=DIRECTION('ref_axis',(0.,0.,-1.));
#1538=DIRECTION('',(0.,0.,1.));
#1539=DIRECTION('center_axis',(0.,0.,-1.));
#1540=DIRECTION('ref_axis',(0.,-1.,0.));
#1541=DIRECTION('',(0.,1.,0.));
#1542=DIRECTION('',(-1.,0.,0.));
#1543=DIRECTION('',(-1.,0.,0.));
#1544=DIRECTION('center_axis',(0.,0.,-1.));
#1545=DIRECTION('ref_axis',(0.,-1.,0.));
#1546=DIRECTION('',(-1.,0.,0.));
#1547=DIRECTION('',(0.,-1.,0.));
#1548=DIRECTION('',(-1.,0.,0.));
#1549=DIRECTION('center_axis',(0.,-1.,0.));
#1550=DIRECTION('ref_axis',(0.,0.,1.));
#1551=DIRECTION('',(0.,0.,-1.));
#1552=DIRECTION('',(-1.,0.,0.));
#1553=DIRECTION('center_axis',(0.,1.,0.));
#1554=DIRECTION('ref_axis',(0.,0.,-1.));
#1555=DIRECTION('',(0.,0.,1.));
#1556=DIRECTION('',(-1.,0.,0.));
#1557=DIRECTION('center_axis',(0.,1.,0.));
#1558=DIRECTION('ref_axis',(0.,0.,-1.));
#1559=DIRECTION('',(0.,0.,-1.));
#1560=DIRECTION('',(-1.,0.,0.));
#1561=DIRECTION('center_axis',(0.,0.,1.));
#1562=DIRECTION('ref_axis',(0.,1.,0.));
#1563=DIRECTION('',(0.,-1.,0.));
#1564=DIRECTION('center_axis',(0.,0.,1.));
#1565=DIRECTION('ref_axis',(0.,1.,0.));
#1566=DIRECTION('',(0.,1.,0.));
#1567=DIRECTION('',(-1.,0.,0.));
#1568=DIRECTION('center_axis',(0.,-1.,0.));
#1569=DIRECTION('ref_axis',(0.,0.,1.));
#1570=DIRECTION('',(0.,0.,1.));
#1571=DIRECTION('center_axis',(1.,0.,0.));
#1572=DIRECTION('ref_axis',(0.,0.,1.));
#1573=DIRECTION('',(0.,0.,-1.));
#1574=DIRECTION('center_axis',(0.,-1.,0.));
#1575=DIRECTION('ref_axis',(1.,0.,0.));
#1576=DIRECTION('',(0.,0.,1.));
#1577=DIRECTION('',(1.,0.,0.));
#1578=DIRECTION('',(0.,0.,-1.));
#1579=DIRECTION('',(-1.,0.,0.));
#1580=DIRECTION('',(0.,0.,1.));
#1581=DIRECTION('',(1.,0.,0.));
#1582=DIRECTION('',(0.,0.,1.));
#1583=DIRECTION('center_axis',(0.,0.,-1.));
#1584=DIRECTION('ref_axis',(-1.,0.,0.));
#1585=DIRECTION('',(0.,0.,-1.));
#1586=DIRECTION('center_axis',(0.,0.,-1.));
#1587=DIRECTION('ref_axis',(-1.,0.,0.));
#1588=DIRECTION('center_axis',(0.,0.,1.));
#1589=DIRECTION('ref_axis',(-1.,0.,0.));
#1590=DIRECTION('center_axis',(0.,0.,-1.));
#1591=DIRECTION('ref_axis',(-1.,0.,0.));
#1592=DIRECTION('',(0.,0.,-1.));
#1593=DIRECTION('center_axis',(0.,0.,-1.));
#1594=DIRECTION('ref_axis',(-1.,0.,0.));
#1595=DIRECTION('center_axis',(0.,0.,1.));
#1596=DIRECTION('ref_axis',(-1.,0.,0.));
#1597=DIRECTION('center_axis',(0.,0.,-1.));
#1598=DIRECTION('ref_axis',(-1.,0.,0.));
#1599=DIRECTION('',(0.,0.,-1.));
#1600=DIRECTION('center_axis',(0.,0.,-1.));
#1601=DIRECTION('ref_axis',(-1.,0.,0.));
#1602=DIRECTION('center_axis',(0.,0.,1.));
#1603=DIRECTION('ref_axis',(-1.,0.,0.));
#1604=DIRECTION('center_axis',(0.,0.,-1.));
#1605=DIRECTION('ref_axis',(-1.,0.,0.));
#1606=DIRECTION('',(0.,0.,-1.));
#1607=DIRECTION('center_axis',(0.,0.,-1.));
#1608=DIRECTION('ref_axis',(-1.,0.,0.));
#1609=DIRECTION('center_axis',(0.,0.,1.));
#1610=DIRECTION('ref_axis',(-1.,0.,0.));
#1611=DIRECTION('center_axis',(-1.,0.,0.));
#1612=DIRECTION('ref_axis',(0.,0.,1.));
#1613=DIRECTION('',(0.,1.,0.));
#1614=DIRECTION('',(0.,0.,-1.));
#1615=DIRECTION('center_axis',(0.,0.,-1.));
#1616=DIRECTION('ref_axis',(-1.,0.,0.));
#1617=DIRECTION('',(1.,2.63596708628931E-15,0.));
#1618=DIRECTION('center_axis',(-1.,-3.32364477375747E-15,0.));
#1619=DIRECTION('ref_axis',(-3.32364477375747E-15,1.,0.));
#1620=DIRECTION('',(0.,0.,-1.));
#1621=DIRECTION('',(-3.32364477375747E-15,1.,0.));
#1622=DIRECTION('',(0.,0.,-1.));
#1623=DIRECTION('center_axis',(-2.65014752642719E-15,1.,0.));
#1624=DIRECTION('ref_axis',(1.,2.65014752642719E-15,0.));
#1625=DIRECTION('',(0.,0.,-1.));
#1626=DIRECTION('',(1.,2.65014752642719E-15,0.));
#1627=DIRECTION('center_axis',(-1.,-7.83470146601897E-15,0.));
#1628=DIRECTION('ref_axis',(-7.83470146601897E-15,1.,0.));
#1629=DIRECTION('',(0.,0.,-1.));
#1630=DIRECTION('',(-7.83470146601897E-15,1.,0.));
#1631=DIRECTION('center_axis',(2.63596708628931E-15,-1.,0.));
#1632=DIRECTION('ref_axis',(-1.,-2.63596708628931E-15,0.));
#1633=DIRECTION('',(0.,0.,-1.));
#1634=DIRECTION('',(-1.,-2.63596708628931E-15,0.));
#1635=DIRECTION('center_axis',(1.,1.66182238687873E-15,0.));
#1636=DIRECTION('ref_axis',(1.66182238687873E-15,-1.,0.));
#1637=DIRECTION('',(0.,0.,1.));
#1638=DIRECTION('',(1.66182238687873E-15,-1.,0.));
#1639=DIRECTION('center_axis',(0.,0.,-1.));
#1640=DIRECTION('ref_axis',(-1.,0.,0.));
#1641=DIRECTION('',(1.,0.,0.));
#1642=DIRECTION('center_axis',(0.,0.,1.));
#1643=DIRECTION('ref_axis',(-1.,0.,0.));
#1644=DIRECTION('center_axis',(0.,0.,-1.));
#1645=DIRECTION('ref_axis',(-1.,0.,0.));
#1646=DIRECTION('',(0.,0.,-1.));
#1647=DIRECTION('center_axis',(0.,0.,1.));
#1648=DIRECTION('ref_axis',(-1.,0.,0.));
#1649=DIRECTION('center_axis',(1.,0.,0.));
#1650=DIRECTION('ref_axis',(0.,1.,0.));
#1651=DIRECTION('',(0.,-1.,0.));
#1652=DIRECTION('',(0.,1.,0.));
#1653=DIRECTION('',(0.,0.,1.));
#1654=DIRECTION('center_axis',(0.,-1.,0.));
#1655=DIRECTION('ref_axis',(1.,0.,0.));
#1656=DIRECTION('',(-1.,0.,0.));
#1657=DIRECTION('',(1.,0.,0.));
#1658=DIRECTION('',(0.,0.,1.));
#1659=DIRECTION('center_axis',(0.,0.,1.));
#1660=DIRECTION('ref_axis',(-1.,0.,0.));
#1661=DIRECTION('',(0.,1.,0.));
#1662=DIRECTION('center_axis',(0.,0.,1.));
#1663=DIRECTION('ref_axis',(1.,0.,0.));
#1664=DIRECTION('',(0.,-1.,0.));
#1665=DIRECTION('',(1.,0.,0.));
#1666=DIRECTION('',(0.,-1.,0.));
#1667=DIRECTION('',(1.,0.,0.));
#1668=DIRECTION('',(0.,1.,0.));
#1669=DIRECTION('',(1.,0.,0.));
#1670=DIRECTION('',(0.,1.,0.));
#1671=DIRECTION('',(-1.,0.,0.));
#1672=DIRECTION('',(0.,1.,0.));
#1673=DIRECTION('center_axis',(0.,0.,1.));
#1674=DIRECTION('ref_axis',(-1.,0.,0.));
#1675=DIRECTION('center_axis',(0.,0.,-1.));
#1676=DIRECTION('ref_axis',(-1.,0.,0.));
#1677=DIRECTION('',(0.,0.,-1.));
#1678=DIRECTION('center_axis',(0.,0.,1.));
#1679=DIRECTION('ref_axis',(-1.,0.,0.));
#1680=DIRECTION('center_axis',(-1.,0.,0.));
#1681=DIRECTION('ref_axis',(0.,-1.,0.));
#1682=DIRECTION('',(0.,0.,-1.));
#1683=DIRECTION('',(0.,-1.,0.));
#1684=DIRECTION('',(0.,0.,1.));
#1685=DIRECTION('center_axis',(0.,1.,0.));
#1686=DIRECTION('ref_axis',(-1.,0.,0.));
#1687=DIRECTION('',(-1.,0.,0.));
#1688=DIRECTION('',(0.,0.,1.));
#1689=DIRECTION('center_axis',(0.,0.,1.));
#1690=DIRECTION('ref_axis',(-1.,0.,0.));
#1691=DIRECTION('',(-1.,0.,0.));
#1692=DIRECTION('',(0.,-1.,0.));
#1693=DIRECTION('center_axis',(0.,0.,1.));
#1694=DIRECTION('ref_axis',(1.,0.,0.));
#1695=DIRECTION('center_axis',(0.,0.,1.));
#1696=DIRECTION('ref_axis',(-1.,0.,0.));
#1697=DIRECTION('center_axis',(0.,0.,-1.));
#1698=DIRECTION('ref_axis',(-1.,0.,0.));
#1699=DIRECTION('',(0.,0.,-1.));
#1700=DIRECTION('center_axis',(0.,0.,1.));
#1701=DIRECTION('ref_axis',(-1.,0.,0.));
#1702=DIRECTION('center_axis',(0.,1.,0.));
#1703=DIRECTION('ref_axis',(-1.,0.,0.));
#1704=DIRECTION('',(0.,0.,-1.));
#1705=DIRECTION('',(-1.,0.,0.));
#1706=DIRECTION('',(0.,0.,1.));
#1707=DIRECTION('center_axis',(1.,0.,0.));
#1708=DIRECTION('ref_axis',(0.,1.,0.));
#1709=DIRECTION('',(0.,1.,0.));
#1710=DIRECTION('',(0.,0.,1.));
#1711=DIRECTION('center_axis',(0.,0.,1.));
#1712=DIRECTION('ref_axis',(-1.,0.,0.));
#1713=DIRECTION('',(0.,1.,0.));
#1714=DIRECTION('',(-1.,0.,0.));
#1715=DIRECTION('center_axis',(1.,0.,0.));
#1716=DIRECTION('ref_axis',(0.,1.,0.));
#1717=DIRECTION('',(0.,0.,1.));
#1718=DIRECTION('center_axis',(0.,0.,1.));
#1719=DIRECTION('ref_axis',(1.,0.,0.));
#1720=DIRECTION('center_axis',(0.,0.,1.));
#1721=DIRECTION('ref_axis',(-1.,0.,0.));
#1722=DIRECTION('center_axis',(0.,0.,-1.));
#1723=DIRECTION('ref_axis',(-1.,0.,0.));
#1724=DIRECTION('',(0.,0.,-1.));
#1725=DIRECTION('center_axis',(0.,0.,1.));
#1726=DIRECTION('ref_axis',(-1.,0.,0.));
#1727=DIRECTION('center_axis',(0.,-1.,0.));
#1728=DIRECTION('ref_axis',(1.,0.,0.));
#1729=DIRECTION('',(0.,0.,-1.));
#1730=DIRECTION('',(1.,0.,0.));
#1731=DIRECTION('',(0.,0.,1.));
#1732=DIRECTION('center_axis',(-1.,0.,0.));
#1733=DIRECTION('ref_axis',(0.,-1.,0.));
#1734=DIRECTION('',(0.,-1.,0.));
#1735=DIRECTION('center_axis',(0.,0.,1.));
#1736=DIRECTION('ref_axis',(-1.,0.,0.));
#1737=DIRECTION('',(0.,-1.,0.));
#1738=DIRECTION('center_axis',(0.,0.,1.));
#1739=DIRECTION('ref_axis',(1.,0.,0.));
#1740=DIRECTION('center_axis',(0.,1.,0.));
#1741=DIRECTION('ref_axis',(-1.,0.,0.));
#1742=DIRECTION('',(0.,0.,1.));
#1743=DIRECTION('center_axis',(-1.,0.,0.));
#1744=DIRECTION('ref_axis',(0.,-1.,0.));
#1745=DIRECTION('center_axis',(0.,0.,1.));
#1746=DIRECTION('ref_axis',(1.,0.,0.));
#1747=DIRECTION('center_axis',(0.,0.,-1.));
#1748=DIRECTION('ref_axis',(-1.,0.,0.));
#1749=CARTESIAN_POINT('',(0.,0.,0.));
#1750=CARTESIAN_POINT('Origin',(9.04700000000002,-34.405,29.15));
#1751=CARTESIAN_POINT('',(33.212,-35.655,30.4));
#1752=CARTESIAN_POINT('',(-34.906,-35.655,30.4));
#1753=CARTESIAN_POINT('',(9.04700000000002,-35.655,30.4));
#1754=CARTESIAN_POINT('',(-32.406,-33.155,27.9));
#1755=CARTESIAN_POINT('',(-34.906,-35.655,30.4));
#1756=CARTESIAN_POINT('',(30.712,-33.155,27.9));
#1757=CARTESIAN_POINT('',(9.04700000000002,-33.155,27.9));
#1758=CARTESIAN_POINT('',(33.212,-35.655,30.4));
#1759=CARTESIAN_POINT('Origin',(-33.656,-34.405,5.));
#1760=CARTESIAN_POINT('',(-34.906,-35.655,7.50000000000001));
#1761=CARTESIAN_POINT('',(-34.906,-35.655,5.));
#1762=CARTESIAN_POINT('',(-32.406,-33.155,10.));
#1763=CARTESIAN_POINT('',(-34.906,-35.655,7.50000000000001));
#1764=CARTESIAN_POINT('',(-32.406,-33.155,5.));
#1765=CARTESIAN_POINT('Origin',(31.962,-34.405,13.95));
#1766=CARTESIAN_POINT('',(30.712,-33.155,10.));
#1767=CARTESIAN_POINT('',(30.712,-33.155,13.95));
#1768=CARTESIAN_POINT('',(33.212,-35.655,7.50000000000001));
#1769=CARTESIAN_POINT('',(30.712,-33.155,10.));
#1770=CARTESIAN_POINT('',(33.212,-35.655,13.95));
#1771=CARTESIAN_POINT('Origin',(40.606,-34.405,8.75000000000001));
#1772=CARTESIAN_POINT('',(40.606,-35.655,7.50000000000001));
#1773=CARTESIAN_POINT('',(40.606,-33.155,10.));
#1774=CARTESIAN_POINT('Origin',(30.712,-35.655,27.9));
#1775=CARTESIAN_POINT('',(30.712,-32.3875409119661,27.9));
#1776=CARTESIAN_POINT('',(30.712,-35.655,27.9));
#1777=CARTESIAN_POINT('',(30.712,-32.3875409119661,10.));
#1778=CARTESIAN_POINT('',(30.712,-32.3875409119661,30.45));
#1779=CARTESIAN_POINT('',(30.712,-35.655,10.));
#1780=CARTESIAN_POINT('Origin',(-32.406,-35.655,27.9));
#1781=CARTESIAN_POINT('',(-32.406,-32.3875409119663,27.9));
#1782=CARTESIAN_POINT('',(-32.406,-35.655,27.9));
#1783=CARTESIAN_POINT('',(1.15787127773668,-32.3875409119662,27.9));
#1784=CARTESIAN_POINT('Origin',(50.5,-35.655,0.));
#1785=CARTESIAN_POINT('',(51.5,-35.655,33.2));
#1786=CARTESIAN_POINT('',(51.5,-35.655,-3.));
#1787=CARTESIAN_POINT('',(51.5,-35.655,0.));
#1788=CARTESIAN_POINT('',(-51.5,-35.655,33.2));
#1789=CARTESIAN_POINT('',(50.5,-35.655,33.2));
#1790=CARTESIAN_POINT('',(-51.5,-35.655,-3.));
#1791=CARTESIAN_POINT('',(-51.5,-35.655,0.));
#1792=CARTESIAN_POINT('',(-50.5,-35.655,-3.));
#1793=CARTESIAN_POINT('Origin',(-51.5,31.5,0.));
#1794=CARTESIAN_POINT('',(-53.5,31.5,33.2));
#1795=CARTESIAN_POINT('',(-51.5,33.5,33.2));
#1796=CARTESIAN_POINT('Origin',(-51.5,31.5,33.2));
#1797=CARTESIAN_POINT('',(-51.5,33.5,-3.));
#1798=CARTESIAN_POINT('',(-51.5,33.5,0.));
#1799=CARTESIAN_POINT('',(-53.5,31.5,-3.));
#1800=CARTESIAN_POINT('Origin',(-51.5,31.5,-3.));
#1801=CARTESIAN_POINT('',(-53.5,31.5,0.));
#1802=CARTESIAN_POINT('Origin',(-50.5,33.5,0.));
#1803=CARTESIAN_POINT('',(-3.9024848938,33.5,33.2));
#1804=CARTESIAN_POINT('',(-50.5,33.5,33.2));
#1805=CARTESIAN_POINT('',(-3.9024848938,33.5,26.2));
#1806=CARTESIAN_POINT('',(-3.9024848938,33.5,16.6));
#1807=CARTESIAN_POINT('',(-2.90248489380001,33.5,25.2));
#1808=CARTESIAN_POINT('Origin',(-2.9024848938,33.5,26.2));
#1809=CARTESIAN_POINT('',(13.0975151062,33.5,25.2));
#1810=CARTESIAN_POINT('',(-27.2012424469,33.5,25.2));
#1811=CARTESIAN_POINT('',(14.0975151062,33.5,26.2));
#1812=CARTESIAN_POINT('Origin',(13.0975151062,33.5,26.2));
#1813=CARTESIAN_POINT('',(14.0975151062,33.5,33.2));
#1814=CARTESIAN_POINT('',(14.0975151062,33.5,12.6));
#1815=CARTESIAN_POINT('',(51.5,33.5,33.2));
#1816=CARTESIAN_POINT('',(-50.5,33.5,33.2));
#1817=CARTESIAN_POINT('',(51.5,33.5,-3.));
#1818=CARTESIAN_POINT('',(51.5,33.5,0.));
#1819=CARTESIAN_POINT('',(50.5,33.5,-3.));
#1820=CARTESIAN_POINT('Origin',(0.,4.44089209850063E-15,33.2));
#1821=CARTESIAN_POINT('',(-53.5,-33.655,33.2));
#1822=CARTESIAN_POINT('',(-53.5,30.5,33.2));
#1823=CARTESIAN_POINT('Origin',(-51.5,-33.655,33.2));
#1824=CARTESIAN_POINT('',(53.5,-33.655,33.2));
#1825=CARTESIAN_POINT('Origin',(51.5,-33.655,33.2));
#1826=CARTESIAN_POINT('',(53.5,31.5,33.2));
#1827=CARTESIAN_POINT('',(53.5,-30.5,33.2));
#1828=CARTESIAN_POINT('Origin',(51.5,31.5,33.2));
#1829=CARTESIAN_POINT('',(14.0975151062,25.5,33.2));
#1830=CARTESIAN_POINT('',(14.0975151062,16.75,33.2));
#1831=CARTESIAN_POINT('',(45.5,25.5,33.2));
#1832=CARTESIAN_POINT('',(-45.5,25.5,33.2));
#1833=CARTESIAN_POINT('',(45.5,-25.5,33.2));
#1834=CARTESIAN_POINT('',(45.5,25.5,33.2));
#1835=CARTESIAN_POINT('',(34.7217425554733,-25.5,33.2));
#1836=CARTESIAN_POINT('',(45.5,-25.5,33.2));
#1837=CARTESIAN_POINT('',(34.7217425554734,-32.3875409119661,33.2));
#1838=CARTESIAN_POINT('',(34.7217425554733,-12.75,33.2));
#1839=CARTESIAN_POINT('',(-39.4063652461661,-32.3875409119663,33.2));
#1840=CARTESIAN_POINT('',(17.3608712777367,-32.3875409119661,33.2));
#1841=CARTESIAN_POINT('',(-39.4063652461662,-27.8529537369354,33.2));
#1842=CARTESIAN_POINT('',(-39.4063652461662,-16.1937704559833,33.2));
#1843=CARTESIAN_POINT('',(30.9736669132061,-27.8529537369352,33.2));
#1844=CARTESIAN_POINT('',(-19.703182623083,-27.8529537369354,33.2));
#1845=CARTESIAN_POINT('',(30.9736669132061,-25.5,33.2));
#1846=CARTESIAN_POINT('',(30.9736669132061,-13.9264768684676,33.2));
#1847=CARTESIAN_POINT('',(-45.5,-25.5,33.2));
#1848=CARTESIAN_POINT('',(45.5,-25.5,33.2));
#1849=CARTESIAN_POINT('',(-45.5,25.5,33.2));
#1850=CARTESIAN_POINT('',(-45.5,-25.5,33.2));
#1851=CARTESIAN_POINT('',(-3.9024848938,25.5,33.2));
#1852=CARTESIAN_POINT('',(-45.5,25.5,33.2));
#1853=CARTESIAN_POINT('',(-3.9024848938,16.75,33.2));
#1854=CARTESIAN_POINT('',(46.4108712777367,-30.5775,33.2));
#1855=CARTESIAN_POINT('Origin',(44.1108712777367,-30.5775,33.2));
#1856=CARTESIAN_POINT('',(-41.811,-30.577,33.2));
#1857=CARTESIAN_POINT('Origin',(-44.111,-30.577,33.2));
#1858=CARTESIAN_POINT('',(51.8,29.5,33.2));
#1859=CARTESIAN_POINT('Origin',(49.5,29.5,33.2));
#1860=CARTESIAN_POINT('',(-47.2,29.5,33.2));
#1861=CARTESIAN_POINT('Origin',(-49.5,29.5,33.2));
#1862=CARTESIAN_POINT('Origin',(51.5,31.5,0.));
#1863=CARTESIAN_POINT('',(53.5,31.5,-3.));
#1864=CARTESIAN_POINT('',(53.5,31.5,0.));
#1865=CARTESIAN_POINT('Origin',(51.5,31.5,-3.));
#1866=CARTESIAN_POINT('Origin',(53.5,30.5,0.));
#1867=CARTESIAN_POINT('',(53.5,-33.655,-3.));
#1868=CARTESIAN_POINT('',(53.5,-33.655,0.));
#1869=CARTESIAN_POINT('',(53.5,30.5,-3.));
#1870=CARTESIAN_POINT('',(53.5,-16.5,28.2));
#1871=CARTESIAN_POINT('',(53.5,13.5,28.2));
#1872=CARTESIAN_POINT('',(53.5,7.00000000000001,28.2));
#1873=CARTESIAN_POINT('',(53.5,13.5,25.2));
#1874=CARTESIAN_POINT('',(53.5,13.5,14.1));
#1875=CARTESIAN_POINT('',(53.5,-16.5,25.2));
#1876=CARTESIAN_POINT('',(53.5,22.,25.2));
#1877=CARTESIAN_POINT('',(53.5,-16.5,12.6));
#1878=CARTESIAN_POINT('Origin',(51.5,-33.655,0.));
#1879=CARTESIAN_POINT('Origin',(51.5,-33.655,-3.));
#1880=CARTESIAN_POINT('Origin',(-51.5,-33.655,0.));
#1881=CARTESIAN_POINT('',(-53.5,-33.655,-3.));
#1882=CARTESIAN_POINT('',(-53.5,-33.655,0.));
#1883=CARTESIAN_POINT('Origin',(-51.5,-33.655,-3.));
#1884=CARTESIAN_POINT('Origin',(-53.5,-30.5,0.));
#1885=CARTESIAN_POINT('',(-53.5,-30.5,-3.));
#1886=CARTESIAN_POINT('',(-53.5,13.5,28.2));
#1887=CARTESIAN_POINT('',(-53.5,-16.5,28.2));
#1888=CARTESIAN_POINT('',(-53.5,-23.5,28.2));
#1889=CARTESIAN_POINT('',(-53.5,-16.5,25.2));
#1890=CARTESIAN_POINT('',(-53.5,-16.5,12.6));
#1891=CARTESIAN_POINT('',(-53.5,13.5,25.2));
#1892=CARTESIAN_POINT('',(-53.5,-8.5,25.2));
#1893=CARTESIAN_POINT('',(-53.5,13.5,14.1));
#1894=CARTESIAN_POINT('Origin',(13.0975151062,33.5,26.2));
#1895=CARTESIAN_POINT('',(13.0975151062,25.5,25.2));
#1896=CARTESIAN_POINT('',(13.0975151062,33.5,25.2));
#1897=CARTESIAN_POINT('',(14.0975151062,25.5,26.2));
#1898=CARTESIAN_POINT('Origin',(13.0975151062,25.5,26.2));
#1899=CARTESIAN_POINT('',(14.0975151062,33.5,26.2));
#1900=CARTESIAN_POINT('Origin',(-3.9024848938,33.5,25.2));
#1901=CARTESIAN_POINT('',(-2.90248489380001,25.5,25.2));
#1902=CARTESIAN_POINT('',(-2.9024848938,33.5,25.2));
#1903=CARTESIAN_POINT('',(-24.7012424469,25.5,25.2));
#1904=CARTESIAN_POINT('Origin',(-2.9024848938,33.5,26.2));
#1905=CARTESIAN_POINT('',(-3.9024848938,25.5,26.2));
#1906=CARTESIAN_POINT('',(-3.9024848938,33.5,26.2));
#1907=CARTESIAN_POINT('Origin',(-2.9024848938,25.5,26.2));
#1908=CARTESIAN_POINT('Origin',(-3.9024848938,33.5,33.2));
#1909=CARTESIAN_POINT('',(-3.9024848938,25.5,16.6));
#1910=CARTESIAN_POINT('Origin',(53.5,13.5,25.2));
#1911=CARTESIAN_POINT('',(45.5,-16.5,25.2));
#1912=CARTESIAN_POINT('',(45.5,13.5,25.2));
#1913=CARTESIAN_POINT('',(45.5,19.5,25.2));
#1914=CARTESIAN_POINT('',(53.5,-16.5,25.2));
#1915=CARTESIAN_POINT('',(53.5,13.5,25.2));
#1916=CARTESIAN_POINT('Origin',(53.5,13.5,25.2));
#1917=CARTESIAN_POINT('',(-45.5,-16.5,25.2));
#1918=CARTESIAN_POINT('',(53.5,-16.5,25.2));
#1919=CARTESIAN_POINT('',(-45.5,13.5,25.2));
#1920=CARTESIAN_POINT('',(-45.5,-6.,25.2));
#1921=CARTESIAN_POINT('',(53.5,13.5,25.2));
#1922=CARTESIAN_POINT('Origin',(53.5,-16.5,25.2));
#1923=CARTESIAN_POINT('',(45.5,-16.5,28.2));
#1924=CARTESIAN_POINT('',(45.5,-16.5,12.6));
#1925=CARTESIAN_POINT('',(53.5,-16.5,28.2));
#1926=CARTESIAN_POINT('Origin',(53.5,13.5,28.2));
#1927=CARTESIAN_POINT('',(45.5,13.5,28.2));
#1928=CARTESIAN_POINT('',(45.5,13.5,14.1));
#1929=CARTESIAN_POINT('',(53.5,13.5,28.2));
#1930=CARTESIAN_POINT('Origin',(53.5,13.5,28.2));
#1931=CARTESIAN_POINT('',(-45.5,13.5,28.2));
#1932=CARTESIAN_POINT('',(-45.5,13.5,14.1));
#1933=CARTESIAN_POINT('',(53.5,13.5,28.2));
#1934=CARTESIAN_POINT('Origin',(53.5,-16.5,28.2));
#1935=CARTESIAN_POINT('',(45.5,4.50000000000001,28.2));
#1936=CARTESIAN_POINT('Origin',(53.5,-16.5,28.2));
#1937=CARTESIAN_POINT('',(-45.5,-16.5,28.2));
#1938=CARTESIAN_POINT('',(-45.5,-21.,28.2));
#1939=CARTESIAN_POINT('',(53.5,-16.5,28.2));
#1940=CARTESIAN_POINT('Origin',(53.5,-16.5,25.2));
#1941=CARTESIAN_POINT('',(-45.5,-16.5,12.6));
#1942=CARTESIAN_POINT('Origin',(14.0975151062,33.5,25.2));
#1943=CARTESIAN_POINT('',(14.0975151062,25.5,12.6));
#1944=CARTESIAN_POINT('Origin',(-45.5,25.5,0.));
#1945=CARTESIAN_POINT('',(-45.5,25.5,24.));
#1946=CARTESIAN_POINT('',(-45.5,25.5,0.));
#1947=CARTESIAN_POINT('',(-35.5,25.5,24.));
#1948=CARTESIAN_POINT('',(-43.,25.5,24.));
#1949=CARTESIAN_POINT('',(-35.5,25.5,0.));
#1950=CARTESIAN_POINT('',(-35.5,25.5,0.));
#1951=CARTESIAN_POINT('',(35.5,25.5,0.));
#1952=CARTESIAN_POINT('',(-22.75,25.5,0.));
#1953=CARTESIAN_POINT('',(35.5,25.5,24.));
#1954=CARTESIAN_POINT('',(35.5,25.5,0.));
#1955=CARTESIAN_POINT('',(45.5,25.5,24.));
#1956=CARTESIAN_POINT('',(-2.5,25.5,24.));
#1957=CARTESIAN_POINT('',(45.5,25.5,0.));
#1958=CARTESIAN_POINT('Origin',(-49.5,29.5,33.));
#1959=CARTESIAN_POINT('',(-47.2,29.5,18.));
#1960=CARTESIAN_POINT('',(-47.2,29.5,33.));
#1961=CARTESIAN_POINT('Origin',(-49.5,29.5,18.));
#1962=CARTESIAN_POINT('Origin',(-49.5,29.5,18.));
#1963=CARTESIAN_POINT('Origin',(49.5,29.5,33.));
#1964=CARTESIAN_POINT('',(51.8,29.5,18.));
#1965=CARTESIAN_POINT('',(51.8,29.5,33.));
#1966=CARTESIAN_POINT('Origin',(49.5,29.5,18.));
#1967=CARTESIAN_POINT('Origin',(49.5,29.5,18.));
#1968=CARTESIAN_POINT('Origin',(-44.111,-30.577,33.));
#1969=CARTESIAN_POINT('',(-41.811,-30.577,18.));
#1970=CARTESIAN_POINT('',(-41.811,-30.577,33.));
#1971=CARTESIAN_POINT('Origin',(-44.111,-30.577,18.));
#1972=CARTESIAN_POINT('Origin',(-44.111,-30.577,18.));
#1973=CARTESIAN_POINT('Origin',(44.1108712777367,-30.5775,33.));
#1974=CARTESIAN_POINT('',(46.4108712777367,-30.5775,18.));
#1975=CARTESIAN_POINT('',(46.4108712777367,-30.5775,33.));
#1976=CARTESIAN_POINT('Origin',(44.1108712777367,-30.5775,18.));
#1977=CARTESIAN_POINT('Origin',(44.1108712777367,-30.5775,18.));
#1978=CARTESIAN_POINT('Origin',(-32.406,-35.655,10.));
#1979=CARTESIAN_POINT('',(-32.406,-32.3875409119663,10.));
#1980=CARTESIAN_POINT('',(-32.406,-35.655,10.));
#1981=CARTESIAN_POINT('',(-32.406,-32.3875409119663,21.5));
#1982=CARTESIAN_POINT('Origin',(30.712,-35.655,10.));
#1983=CARTESIAN_POINT('',(32.7168712777367,-32.3875409119661,10.));
#1984=CARTESIAN_POINT('Origin',(30.9736669132061,-27.8529537369352,33.));
#1985=CARTESIAN_POINT('',(30.9736669132061,-27.8529537369352,8.));
#1986=CARTESIAN_POINT('',(30.9736669132061,-27.8529537369352,33.));
#1987=CARTESIAN_POINT('',(30.9736669132061,-25.5,8.));
#1988=CARTESIAN_POINT('',(30.9736669132061,-17.1637437863061,8.));
#1989=CARTESIAN_POINT('',(30.9736669132061,-25.5,16.5));
#1990=CARTESIAN_POINT('Origin',(-39.4063652461662,-27.8529537369354,33.));
#1991=CARTESIAN_POINT('',(-39.4063652461662,-27.8529537369354,8.));
#1992=CARTESIAN_POINT('',(-39.4063652461662,-27.8529537369354,33.));
#1993=CARTESIAN_POINT('',(-39.4063652461662,-27.8529537369354,8.));
#1994=CARTESIAN_POINT('Origin',(-39.4063652461661,-32.3875409119663,33.));
#1995=CARTESIAN_POINT('',(-39.4063652461661,-32.3875409119663,8.));
#1996=CARTESIAN_POINT('',(-39.4063652461661,-32.3875409119663,33.));
#1997=CARTESIAN_POINT('',(-39.4063652461661,-32.3875409119663,8.));
#1998=CARTESIAN_POINT('Origin',(34.7217425554734,-32.3875409119661,33.));
#1999=CARTESIAN_POINT('',(34.7217425554734,-32.3875409119661,8.));
#2000=CARTESIAN_POINT('',(34.7217425554734,-32.3875409119661,33.));
#2001=CARTESIAN_POINT('',(34.7217425554734,-32.3875409119661,8.));
#2002=CARTESIAN_POINT('Origin',(34.7217425554733,-25.5,33.));
#2003=CARTESIAN_POINT('',(34.7217425554733,-25.5,8.));
#2004=CARTESIAN_POINT('',(34.7217425554733,-25.5,16.5));
#2005=CARTESIAN_POINT('',(34.7217425554733,-27.8529537369352,8.));
#2006=CARTESIAN_POINT('Origin',(-2.3423113453464,-28.9437704559831,8.));
#2007=CARTESIAN_POINT('',(21.5788443273268,-25.5,8.));
#2008=CARTESIAN_POINT('Origin',(-38.96,19.77,0.));
#2009=CARTESIAN_POINT('',(-36.66,19.77,24.));
#2010=CARTESIAN_POINT('Origin',(-38.96,19.77,24.));
#2011=CARTESIAN_POINT('',(-36.66,19.77,0.));
#2012=CARTESIAN_POINT('',(-36.66,19.77,0.));
#2013=CARTESIAN_POINT('Origin',(-38.96,19.77,0.));
#2014=CARTESIAN_POINT('Origin',(-35.5,15.5,0.));
#2015=CARTESIAN_POINT('',(-35.5,15.5,0.));
#2016=CARTESIAN_POINT('',(-35.5,7.75000000000001,0.));
#2017=CARTESIAN_POINT('',(-35.5,15.5,24.));
#2018=CARTESIAN_POINT('',(-35.5,25.5,24.));
#2019=CARTESIAN_POINT('',(-35.5,15.5,0.));
#2020=CARTESIAN_POINT('Origin',(-45.5,15.5,0.));
#2021=CARTESIAN_POINT('',(-45.5,15.5,0.));
#2022=CARTESIAN_POINT('',(-22.75,15.5,0.));
#2023=CARTESIAN_POINT('',(-45.5,15.5,24.));
#2024=CARTESIAN_POINT('',(-35.5,15.5,24.));
#2025=CARTESIAN_POINT('',(-45.5,15.5,0.));
#2026=CARTESIAN_POINT('Origin',(-40.5,20.5,24.));
#2027=CARTESIAN_POINT('',(-45.5,-2.5,24.));
#2028=CARTESIAN_POINT('Origin',(0.,4.44089209850063E-15,0.));
#2029=CARTESIAN_POINT('',(-45.5,-15.5,0.));
#2030=CARTESIAN_POINT('',(-45.5,-12.75,0.));
#2031=CARTESIAN_POINT('',(-35.5,-15.5,0.));
#2032=CARTESIAN_POINT('',(-17.75,-15.5,0.));
#2033=CARTESIAN_POINT('',(-35.5,-25.5,0.));
#2034=CARTESIAN_POINT('',(-35.5,-12.75,0.));
#2035=CARTESIAN_POINT('',(35.5,-25.5,0.));
#2036=CARTESIAN_POINT('',(22.75,-25.5,0.));
#2037=CARTESIAN_POINT('',(35.5,-15.5,0.));
#2038=CARTESIAN_POINT('',(35.5,-7.75,0.));
#2039=CARTESIAN_POINT('',(45.5,-15.5,0.));
#2040=CARTESIAN_POINT('',(22.75,-15.5,0.));
#2041=CARTESIAN_POINT('',(45.5,15.5,0.));
#2042=CARTESIAN_POINT('',(45.5,12.75,0.));
#2043=CARTESIAN_POINT('',(35.5,15.5,0.));
#2044=CARTESIAN_POINT('',(17.75,15.5,0.));
#2045=CARTESIAN_POINT('',(35.5,12.75,0.));
#2046=CARTESIAN_POINT('Origin',(40.,-19.47,0.));
#2047=CARTESIAN_POINT('',(42.3,-19.47,24.));
#2048=CARTESIAN_POINT('Origin',(40.,-19.47,24.));
#2049=CARTESIAN_POINT('',(42.3,-19.47,0.));
#2050=CARTESIAN_POINT('',(42.3,-19.47,0.));
#2051=CARTESIAN_POINT('Origin',(40.,-19.47,0.));
#2052=CARTESIAN_POINT('Origin',(35.5,-15.5,0.));
#2053=CARTESIAN_POINT('',(35.5,-25.5,24.));
#2054=CARTESIAN_POINT('',(35.5,-25.5,0.));
#2055=CARTESIAN_POINT('',(35.5,-15.5,24.));
#2056=CARTESIAN_POINT('',(35.5,-25.5,24.));
#2057=CARTESIAN_POINT('',(35.5,-15.5,0.));
#2058=CARTESIAN_POINT('Origin',(45.5,-15.5,0.));
#2059=CARTESIAN_POINT('',(45.5,-15.5,24.));
#2060=CARTESIAN_POINT('',(35.5,-15.5,24.));
#2061=CARTESIAN_POINT('',(45.5,-15.5,0.));
#2062=CARTESIAN_POINT('Origin',(40.5,-20.5,24.));
#2063=CARTESIAN_POINT('',(45.5,-25.5,24.));
#2064=CARTESIAN_POINT('',(43.,-25.5,24.));
#2065=CARTESIAN_POINT('',(45.5,2.5,24.));
#2066=CARTESIAN_POINT('Origin',(0.,4.44089209850063E-15,0.));
#2067=CARTESIAN_POINT('Origin',(-38.96,-19.26,0.));
#2068=CARTESIAN_POINT('',(-36.66,-19.26,24.));
#2069=CARTESIAN_POINT('Origin',(-38.96,-19.26,24.));
#2070=CARTESIAN_POINT('',(-36.66,-19.26,0.));
#2071=CARTESIAN_POINT('',(-36.66,-19.26,0.));
#2072=CARTESIAN_POINT('Origin',(-38.96,-19.26,0.));
#2073=CARTESIAN_POINT('Origin',(-35.5,-15.5,0.));
#2074=CARTESIAN_POINT('',(-45.5,-15.5,24.));
#2075=CARTESIAN_POINT('',(-45.5,-15.5,0.));
#2076=CARTESIAN_POINT('',(-35.5,-15.5,24.));
#2077=CARTESIAN_POINT('',(-35.5,-15.5,24.));
#2078=CARTESIAN_POINT('',(-35.5,-15.5,0.));
#2079=CARTESIAN_POINT('Origin',(-35.5,-25.5,0.));
#2080=CARTESIAN_POINT('',(-35.5,-25.5,24.));
#2081=CARTESIAN_POINT('',(-35.5,-25.5,24.));
#2082=CARTESIAN_POINT('',(-35.5,-25.5,0.));
#2083=CARTESIAN_POINT('Origin',(-40.5,-20.5,24.));
#2084=CARTESIAN_POINT('',(-45.5,-25.5,24.));
#2085=CARTESIAN_POINT('',(-45.5,-23.,24.));
#2086=CARTESIAN_POINT('',(2.5,-25.5,24.));
#2087=CARTESIAN_POINT('Origin',(-45.5,-25.5,0.));
#2088=CARTESIAN_POINT('',(-45.5,-25.5,0.));
#2089=CARTESIAN_POINT('Origin',(0.,4.44089209850063E-15,0.));
#2090=CARTESIAN_POINT('Origin',(39.56,19.95,0.));
#2091=CARTESIAN_POINT('',(41.86,19.95,24.));
#2092=CARTESIAN_POINT('Origin',(39.56,19.95,24.));
#2093=CARTESIAN_POINT('',(41.86,19.95,0.));
#2094=CARTESIAN_POINT('',(41.86,19.95,0.));
#2095=CARTESIAN_POINT('Origin',(39.56,19.95,0.));
#2096=CARTESIAN_POINT('Origin',(35.5,15.5,0.));
#2097=CARTESIAN_POINT('',(45.5,15.5,24.));
#2098=CARTESIAN_POINT('',(45.5,15.5,0.));
#2099=CARTESIAN_POINT('',(35.5,15.5,24.));
#2100=CARTESIAN_POINT('',(35.5,15.5,24.));
#2101=CARTESIAN_POINT('',(35.5,15.5,0.));
#2102=CARTESIAN_POINT('Origin',(35.5,25.5,0.));
#2103=CARTESIAN_POINT('',(35.5,25.5,24.));
#2104=CARTESIAN_POINT('Origin',(40.5,20.5,24.));
#2105=CARTESIAN_POINT('',(45.5,23.,24.));
#2106=CARTESIAN_POINT('Origin',(0.,4.44089209850063E-15,0.));
#2107=CARTESIAN_POINT('Origin',(45.5,-25.5,0.));
#2108=CARTESIAN_POINT('',(45.5,-25.5,0.));
#2109=CARTESIAN_POINT('Origin',(45.5,25.5,0.));
#2110=CARTESIAN_POINT('Origin',(0.,4.44089209850063E-15,0.));
#2111=CARTESIAN_POINT('Origin',(0.,4.44089209850063E-15,-3.));
#2112=UNCERTAINTY_MEASURE_WITH_UNIT(LENGTH_MEASURE(0.01),#2116,
'DISTANCE_ACCURACY_VALUE',
'Maximum model space distance between geometric entities at asserted c
onnectivities');
#2113=UNCERTAINTY_MEASURE_WITH_UNIT(LENGTH_MEASURE(0.01),#2116,
'DISTANCE_ACCURACY_VALUE',
'Maximum model space distance between geometric entities at asserted c
onnectivities');
#2114=(
GEOMETRIC_REPRESENTATION_CONTEXT(3)
GLOBAL_UNCERTAINTY_ASSIGNED_CONTEXT((#2112))
GLOBAL_UNIT_ASSIGNED_CONTEXT((#2116,#2118,#2119))
REPRESENTATION_CONTEXT('','3D')
);
#2115=(
GEOMETRIC_REPRESENTATION_CONTEXT(3)
GLOBAL_UNCERTAINTY_ASSIGNED_CONTEXT((#2113))
GLOBAL_UNIT_ASSIGNED_CONTEXT((#2116,#2118,#2119))
REPRESENTATION_CONTEXT('','3D')
);
#2116=(
LENGTH_UNIT()
NAMED_UNIT(*)
SI_UNIT(.MILLI.,.METRE.)
);
#2117=(
LENGTH_UNIT()
NAMED_UNIT(*)
SI_UNIT($,.METRE.)
);
#2118=(
NAMED_UNIT(*)
PLANE_ANGLE_UNIT()
SI_UNIT($,.RADIAN.)
);
#2119=(
NAMED_UNIT(*)
SI_UNIT($,.STERADIAN.)
SOLID_ANGLE_UNIT()
);
#2120=SHAPE_DEFINITION_REPRESENTATION(#2121,#2122);
#2121=PRODUCT_DEFINITION_SHAPE('',$,#2124);
#2122=SHAPE_REPRESENTATION('',(#1304),#2114);
#2123=PRODUCT_DEFINITION_CONTEXT('part definition',#2128,'design');
#2124=PRODUCT_DEFINITION('AlarmClockCaseBottom',
'AlarmClockCaseBottom v16',#2125,#2123);
#2125=PRODUCT_DEFINITION_FORMATION('',$,#2130);
#2126=PRODUCT_RELATED_PRODUCT_CATEGORY('AlarmClockCaseBottom v16',
'AlarmClockCaseBottom v16',(#2130));
#2127=APPLICATION_PROTOCOL_DEFINITION('international standard',
'automotive_design',2009,#2128);
#2128=APPLICATION_CONTEXT(
'Core Data for Automotive Mechanical Design Process');
#2129=PRODUCT_CONTEXT('part definition',#2128,'mechanical');
#2130=PRODUCT('AlarmClockCaseBottom','AlarmClockCaseBottom v16',$,(#2129));
#2131=PRESENTATION_STYLE_ASSIGNMENT((#2132));
#2132=SURFACE_STYLE_USAGE(.BOTH.,#2133);
#2133=SURFACE_SIDE_STYLE('',(#2134));
#2134=SURFACE_STYLE_FILL_AREA(#2135);
#2135=FILL_AREA_STYLE('Steel - Satin',(#2136));
#2136=FILL_AREA_STYLE_COLOUR('Steel - Satin',#2137);
#2137=COLOUR_RGB('Steel - Satin',0.627450980392157,0.627450980392157,0.627450980392157);
ENDSEC;
END-ISO-10303-21;
