ISO-10303-21;
HEADER;
/* Generated by software containing ST-Developer
 * from STEP Tools, Inc. (www.steptools.com) 
 */

FILE_DESCRIPTION(
/* description */ (''),
/* implementation_level */ '2;1');

FILE_NAME(
/* name */ 'TOP.step',
/* time_stamp */ '2026-09-26T16:12:50-07:00',
/* author */ (''),
/* organization */ (''),
/* preprocessor_version */ 'ST-DEVELOPER v20.2',
/* originating_system */ 'Autodesk Translation Framework v15.15.0.0',
/* authorisation */ '');

FILE_SCHEMA (('AUTOMOTIVE_DESIGN { 1 0 10303 214 3 1 1 }'));
ENDSEC;

DATA;
#10=MECHANICAL_DESIGN_GEOMETRIC_PRESENTATION_REPRESENTATION('',(#13),#893);
#11=SHAPE_REPRESENTATION_RELATIONSHIP('SRR','None',#900,#12);
#12=ADVANCED_BREP_SHAPE_REPRESENTATION('',(#14),#892);
#13=STYLED_ITEM('',(#909),#14);
#14=MANIFOLD_SOLID_BREP('Body1',#533);
#15=CYLINDRICAL_SURFACE('',#560,2.);
#16=CYLINDRICAL_SURFACE('',#563,2.);
#17=CYLINDRICAL_SURFACE('',#565,2.);
#18=CYLINDRICAL_SURFACE('',#568,2.);
#19=CYLINDRICAL_SURFACE('',#570,1.);
#20=CYLINDRICAL_SURFACE('',#574,1.);
#21=CYLINDRICAL_SURFACE('',#584,1.6);
#22=CYLINDRICAL_SURFACE('',#586,1.6);
#23=CYLINDRICAL_SURFACE('',#588,1.6);
#24=CYLINDRICAL_SURFACE('',#590,1.6);
#25=FACE_BOUND('',#85,.T.);
#26=FACE_BOUND('',#86,.T.);
#27=FACE_BOUND('',#87,.T.);
#28=FACE_BOUND('',#88,.T.);
#29=FACE_BOUND('',#89,.T.);
#30=FACE_BOUND('',#90,.T.);
#31=FACE_BOUND('',#116,.T.);
#32=FACE_BOUND('',#117,.T.);
#33=FACE_BOUND('',#118,.T.);
#34=FACE_BOUND('',#119,.T.);
#35=FACE_BOUND('',#120,.T.);
#36=CIRCLE('',#549,2.);
#37=CIRCLE('',#550,2.);
#38=CIRCLE('',#551,2.);
#39=CIRCLE('',#552,2.);
#40=CIRCLE('',#553,1.6);
#41=CIRCLE('',#554,1.6);
#42=CIRCLE('',#555,1.6);
#43=CIRCLE('',#556,1.6);
#44=CIRCLE('',#561,2.);
#45=CIRCLE('',#564,2.);
#46=CIRCLE('',#566,2.);
#47=CIRCLE('',#569,2.);
#48=CIRCLE('',#571,1.);
#49=CIRCLE('',#572,1.);
#50=CIRCLE('',#575,1.);
#51=CIRCLE('',#576,1.);
#52=CIRCLE('',#585,1.6);
#53=CIRCLE('',#587,1.6);
#54=CIRCLE('',#589,1.6);
#55=CIRCLE('',#591,1.6);
#56=FACE_OUTER_BOUND('',#83,.T.);
#57=FACE_OUTER_BOUND('',#84,.T.);
#58=FACE_OUTER_BOUND('',#91,.T.);
#59=FACE_OUTER_BOUND('',#92,.T.);
#60=FACE_OUTER_BOUND('',#93,.T.);
#61=FACE_OUTER_BOUND('',#94,.T.);
#62=FACE_OUTER_BOUND('',#95,.T.);
#63=FACE_OUTER_BOUND('',#96,.T.);
#64=FACE_OUTER_BOUND('',#97,.T.);
#65=FACE_OUTER_BOUND('',#98,.T.);
#66=FACE_OUTER_BOUND('',#99,.T.);
#67=FACE_OUTER_BOUND('',#100,.T.);
#68=FACE_OUTER_BOUND('',#101,.T.);
#69=FACE_OUTER_BOUND('',#102,.T.);
#70=FACE_OUTER_BOUND('',#103,.T.);
#71=FACE_OUTER_BOUND('',#104,.T.);
#72=FACE_OUTER_BOUND('',#105,.T.);
#73=FACE_OUTER_BOUND('',#106,.T.);
#74=FACE_OUTER_BOUND('',#107,.T.);
#75=FACE_OUTER_BOUND('',#108,.T.);
#76=FACE_OUTER_BOUND('',#109,.T.);
#77=FACE_OUTER_BOUND('',#110,.T.);
#78=FACE_OUTER_BOUND('',#111,.T.);
#79=FACE_OUTER_BOUND('',#112,.T.);
#80=FACE_OUTER_BOUND('',#113,.T.);
#81=FACE_OUTER_BOUND('',#114,.T.);
#82=FACE_OUTER_BOUND('',#115,.T.);
#83=EDGE_LOOP('',(#345,#346,#347,#348));
#84=EDGE_LOOP('',(#349,#350,#351,#352,#353,#354,#355,#356,#357,#358,#359,
#360));
#85=EDGE_LOOP('',(#361,#362,#363,#364));
#86=EDGE_LOOP('',(#365,#366,#367,#368));
#87=EDGE_LOOP('',(#369));
#88=EDGE_LOOP('',(#370));
#89=EDGE_LOOP('',(#371));
#90=EDGE_LOOP('',(#372));
#91=EDGE_LOOP('',(#373,#374,#375,#376));
#92=EDGE_LOOP('',(#377,#378,#379,#380));
#93=EDGE_LOOP('',(#381,#382,#383,#384));
#94=EDGE_LOOP('',(#385,#386,#387,#388));
#95=EDGE_LOOP('',(#389,#390,#391,#392));
#96=EDGE_LOOP('',(#393,#394,#395,#396));
#97=EDGE_LOOP('',(#397,#398,#399,#400));
#98=EDGE_LOOP('',(#401,#402,#403,#404));
#99=EDGE_LOOP('',(#405,#406,#407,#408));
#100=EDGE_LOOP('',(#409,#410,#411,#412));
#101=EDGE_LOOP('',(#413,#414,#415,#416));
#102=EDGE_LOOP('',(#417,#418,#419,#420));
#103=EDGE_LOOP('',(#421,#422,#423,#424));
#104=EDGE_LOOP('',(#425,#426,#427,#428,#429,#430,#431,#432));
#105=EDGE_LOOP('',(#433,#434,#435,#436));
#106=EDGE_LOOP('',(#437,#438,#439,#440));
#107=EDGE_LOOP('',(#441,#442,#443,#444));
#108=EDGE_LOOP('',(#445,#446,#447,#448));
#109=EDGE_LOOP('',(#449,#450,#451,#452));
#110=EDGE_LOOP('',(#453,#454,#455,#456));
#111=EDGE_LOOP('',(#457,#458,#459,#460));
#112=EDGE_LOOP('',(#461,#462,#463,#464));
#113=EDGE_LOOP('',(#465,#466,#467,#468));
#114=EDGE_LOOP('',(#469,#470,#471,#472));
#115=EDGE_LOOP('',(#473,#474,#475,#476,#477,#478,#479,#480));
#116=EDGE_LOOP('',(#481,#482,#483,#484));
#117=EDGE_LOOP('',(#485));
#118=EDGE_LOOP('',(#486));
#119=EDGE_LOOP('',(#487));
#120=EDGE_LOOP('',(#488));
#121=LINE('',#746,#173);
#122=LINE('',#748,#174);
#123=LINE('',#750,#175);
#124=LINE('',#751,#176);
#125=LINE('',#757,#177);
#126=LINE('',#761,#178);
#127=LINE('',#763,#179);
#128=LINE('',#765,#180);
#129=LINE('',#767,#181);
#130=LINE('',#769,#182);
#131=LINE('',#773,#183);
#132=LINE('',#776,#184);
#133=LINE('',#779,#185);
#134=LINE('',#781,#186);
#135=LINE('',#783,#187);
#136=LINE('',#784,#188);
#137=LINE('',#786,#189);
#138=LINE('',#788,#190);
#139=LINE('',#789,#191);
#140=LINE('',#800,#192);
#141=LINE('',#801,#193);
#142=LINE('',#804,#194);
#143=LINE('',#805,#195);
#144=LINE('',#807,#196);
#145=LINE('',#812,#197);
#146=LINE('',#813,#198);
#147=LINE('',#816,#199);
#148=LINE('',#817,#200);
#149=LINE('',#821,#201);
#150=LINE('',#826,#202);
#151=LINE('',#827,#203);
#152=LINE('',#830,#204);
#153=LINE('',#831,#205);
#154=LINE('',#835,#206);
#155=LINE('',#841,#207);
#156=LINE('',#844,#208);
#157=LINE('',#846,#209);
#158=LINE('',#847,#210);
#159=LINE('',#853,#211);
#160=LINE('',#856,#212);
#161=LINE('',#858,#213);
#162=LINE('',#859,#214);
#163=LINE('',#862,#215);
#164=LINE('',#863,#216);
#165=LINE('',#866,#217);
#166=LINE('',#867,#218);
#167=LINE('',#869,#219);
#168=LINE('',#874,#220);
#169=LINE('',#878,#221);
#170=LINE('',#882,#222);
#171=LINE('',#886,#223);
#172=LINE('',#888,#224);
#173=VECTOR('',#598,10.);
#174=VECTOR('',#599,10.);
#175=VECTOR('',#600,10.);
#176=VECTOR('',#601,10.);
#177=VECTOR('',#606,10.);
#178=VECTOR('',#609,10.);
#179=VECTOR('',#610,10.);
#180=VECTOR('',#611,10.);
#181=VECTOR('',#612,10.);
#182=VECTOR('',#613,10.);
#183=VECTOR('',#616,10.);
#184=VECTOR('',#619,10.);
#185=VECTOR('',#620,10.);
#186=VECTOR('',#621,10.);
#187=VECTOR('',#622,10.);
#188=VECTOR('',#623,10.);
#189=VECTOR('',#624,10.);
#190=VECTOR('',#625,10.);
#191=VECTOR('',#626,10.);
#192=VECTOR('',#637,10.);
#193=VECTOR('',#638,10.);
#194=VECTOR('',#641,10.);
#195=VECTOR('',#642,10.);
#196=VECTOR('',#645,10.);
#197=VECTOR('',#650,10.);
#198=VECTOR('',#651,10.);
#199=VECTOR('',#654,10.);
#200=VECTOR('',#655,10.);
#201=VECTOR('',#660,10.);
#202=VECTOR('',#665,10.);
#203=VECTOR('',#666,10.);
#204=VECTOR('',#669,10.);
#205=VECTOR('',#670,10.);
#206=VECTOR('',#675,10.);
#207=VECTOR('',#682,10.);
#208=VECTOR('',#685,10.);
#209=VECTOR('',#686,10.);
#210=VECTOR('',#687,10.);
#211=VECTOR('',#698,10.);
#212=VECTOR('',#701,10.);
#213=VECTOR('',#702,10.);
#214=VECTOR('',#703,10.);
#215=VECTOR('',#706,10.);
#216=VECTOR('',#707,10.);
#217=VECTOR('',#710,10.);
#218=VECTOR('',#711,10.);
#219=VECTOR('',#714,10.);
#220=VECTOR('',#721,1.6);
#221=VECTOR('',#726,1.6);
#222=VECTOR('',#731,1.6);
#223=VECTOR('',#736,1.6);
#224=VECTOR('',#739,10.);
#225=VERTEX_POINT('',#744);
#226=VERTEX_POINT('',#745);
#227=VERTEX_POINT('',#747);
#228=VERTEX_POINT('',#749);
#229=VERTEX_POINT('',#753);
#230=VERTEX_POINT('',#754);
#231=VERTEX_POINT('',#756);
#232=VERTEX_POINT('',#758);
#233=VERTEX_POINT('',#760);
#234=VERTEX_POINT('',#762);
#235=VERTEX_POINT('',#764);
#236=VERTEX_POINT('',#766);
#237=VERTEX_POINT('',#768);
#238=VERTEX_POINT('',#770);
#239=VERTEX_POINT('',#772);
#240=VERTEX_POINT('',#774);
#241=VERTEX_POINT('',#777);
#242=VERTEX_POINT('',#778);
#243=VERTEX_POINT('',#780);
#244=VERTEX_POINT('',#782);
#245=VERTEX_POINT('',#785);
#246=VERTEX_POINT('',#787);
#247=VERTEX_POINT('',#790);
#248=VERTEX_POINT('',#792);
#249=VERTEX_POINT('',#794);
#250=VERTEX_POINT('',#796);
#251=VERTEX_POINT('',#799);
#252=VERTEX_POINT('',#803);
#253=VERTEX_POINT('',#809);
#254=VERTEX_POINT('',#810);
#255=VERTEX_POINT('',#815);
#256=VERTEX_POINT('',#819);
#257=VERTEX_POINT('',#823);
#258=VERTEX_POINT('',#824);
#259=VERTEX_POINT('',#829);
#260=VERTEX_POINT('',#833);
#261=VERTEX_POINT('',#837);
#262=VERTEX_POINT('',#839);
#263=VERTEX_POINT('',#843);
#264=VERTEX_POINT('',#845);
#265=VERTEX_POINT('',#855);
#266=VERTEX_POINT('',#857);
#267=VERTEX_POINT('',#861);
#268=VERTEX_POINT('',#865);
#269=VERTEX_POINT('',#872);
#270=VERTEX_POINT('',#876);
#271=VERTEX_POINT('',#880);
#272=VERTEX_POINT('',#884);
#273=EDGE_CURVE('',#225,#226,#121,.T.);
#274=EDGE_CURVE('',#227,#225,#122,.T.);
#275=EDGE_CURVE('',#228,#227,#123,.T.);
#276=EDGE_CURVE('',#226,#228,#124,.T.);
#277=EDGE_CURVE('',#229,#230,#36,.T.);
#278=EDGE_CURVE('',#229,#231,#125,.T.);
#279=EDGE_CURVE('',#232,#231,#37,.T.);
#280=EDGE_CURVE('',#232,#233,#126,.T.);
#281=EDGE_CURVE('',#233,#234,#127,.T.);
#282=EDGE_CURVE('',#234,#235,#128,.T.);
#283=EDGE_CURVE('',#235,#236,#129,.T.);
#284=EDGE_CURVE('',#236,#237,#130,.T.);
#285=EDGE_CURVE('',#238,#237,#38,.T.);
#286=EDGE_CURVE('',#238,#239,#131,.T.);
#287=EDGE_CURVE('',#240,#239,#39,.T.);
#288=EDGE_CURVE('',#240,#230,#132,.T.);
#289=EDGE_CURVE('',#241,#242,#133,.T.);
#290=EDGE_CURVE('',#242,#243,#134,.T.);
#291=EDGE_CURVE('',#243,#244,#135,.T.);
#292=EDGE_CURVE('',#244,#241,#136,.T.);
#293=EDGE_CURVE('',#245,#225,#137,.T.);
#294=EDGE_CURVE('',#226,#246,#138,.T.);
#295=EDGE_CURVE('',#246,#245,#139,.T.);
#296=EDGE_CURVE('',#247,#247,#40,.T.);
#297=EDGE_CURVE('',#248,#248,#41,.T.);
#298=EDGE_CURVE('',#249,#249,#42,.T.);
#299=EDGE_CURVE('',#250,#250,#43,.T.);
#300=EDGE_CURVE('',#251,#228,#140,.T.);
#301=EDGE_CURVE('',#246,#251,#141,.T.);
#302=EDGE_CURVE('',#252,#251,#142,.T.);
#303=EDGE_CURVE('',#245,#252,#143,.T.);
#304=EDGE_CURVE('',#227,#252,#144,.T.);
#305=EDGE_CURVE('',#253,#254,#44,.T.);
#306=EDGE_CURVE('',#254,#229,#145,.T.);
#307=EDGE_CURVE('',#230,#253,#146,.T.);
#308=EDGE_CURVE('',#255,#254,#147,.T.);
#309=EDGE_CURVE('',#231,#255,#148,.T.);
#310=EDGE_CURVE('',#255,#256,#45,.T.);
#311=EDGE_CURVE('',#256,#232,#149,.T.);
#312=EDGE_CURVE('',#257,#258,#46,.T.);
#313=EDGE_CURVE('',#258,#240,#150,.T.);
#314=EDGE_CURVE('',#239,#257,#151,.T.);
#315=EDGE_CURVE('',#259,#238,#152,.T.);
#316=EDGE_CURVE('',#257,#259,#153,.T.);
#317=EDGE_CURVE('',#260,#259,#47,.T.);
#318=EDGE_CURVE('',#237,#260,#154,.T.);
#319=EDGE_CURVE('',#234,#261,#48,.T.);
#320=EDGE_CURVE('',#233,#262,#49,.T.);
#321=EDGE_CURVE('',#262,#261,#155,.T.);
#322=EDGE_CURVE('',#263,#262,#156,.T.);
#323=EDGE_CURVE('',#264,#263,#157,.T.);
#324=EDGE_CURVE('',#264,#261,#158,.T.);
#325=EDGE_CURVE('',#264,#235,#50,.T.);
#326=EDGE_CURVE('',#263,#236,#51,.T.);
#327=EDGE_CURVE('',#260,#256,#159,.T.);
#328=EDGE_CURVE('',#241,#265,#160,.T.);
#329=EDGE_CURVE('',#265,#266,#161,.T.);
#330=EDGE_CURVE('',#242,#266,#162,.T.);
#331=EDGE_CURVE('',#244,#267,#163,.T.);
#332=EDGE_CURVE('',#267,#265,#164,.T.);
#333=EDGE_CURVE('',#243,#268,#165,.T.);
#334=EDGE_CURVE('',#268,#267,#166,.T.);
#335=EDGE_CURVE('',#266,#268,#167,.T.);
#336=EDGE_CURVE('',#269,#269,#52,.T.);
#337=EDGE_CURVE('',#269,#247,#168,.T.);
#338=EDGE_CURVE('',#270,#270,#53,.T.);
#339=EDGE_CURVE('',#270,#248,#169,.T.);
#340=EDGE_CURVE('',#271,#271,#54,.T.);
#341=EDGE_CURVE('',#271,#249,#170,.T.);
#342=EDGE_CURVE('',#272,#272,#55,.T.);
#343=EDGE_CURVE('',#272,#250,#171,.T.);
#344=EDGE_CURVE('',#253,#258,#172,.T.);
#345=ORIENTED_EDGE('',*,*,#273,.F.);
#346=ORIENTED_EDGE('',*,*,#274,.F.);
#347=ORIENTED_EDGE('',*,*,#275,.F.);
#348=ORIENTED_EDGE('',*,*,#276,.F.);
#349=ORIENTED_EDGE('',*,*,#277,.F.);
#350=ORIENTED_EDGE('',*,*,#278,.T.);
#351=ORIENTED_EDGE('',*,*,#279,.F.);
#352=ORIENTED_EDGE('',*,*,#280,.T.);
#353=ORIENTED_EDGE('',*,*,#281,.T.);
#354=ORIENTED_EDGE('',*,*,#282,.T.);
#355=ORIENTED_EDGE('',*,*,#283,.T.);
#356=ORIENTED_EDGE('',*,*,#284,.T.);
#357=ORIENTED_EDGE('',*,*,#285,.F.);
#358=ORIENTED_EDGE('',*,*,#286,.T.);
#359=ORIENTED_EDGE('',*,*,#287,.F.);
#360=ORIENTED_EDGE('',*,*,#288,.T.);
#361=ORIENTED_EDGE('',*,*,#289,.T.);
#362=ORIENTED_EDGE('',*,*,#290,.T.);
#363=ORIENTED_EDGE('',*,*,#291,.T.);
#364=ORIENTED_EDGE('',*,*,#292,.T.);
#365=ORIENTED_EDGE('',*,*,#293,.T.);
#366=ORIENTED_EDGE('',*,*,#273,.T.);
#367=ORIENTED_EDGE('',*,*,#294,.T.);
#368=ORIENTED_EDGE('',*,*,#295,.T.);
#369=ORIENTED_EDGE('',*,*,#296,.T.);
#370=ORIENTED_EDGE('',*,*,#297,.T.);
#371=ORIENTED_EDGE('',*,*,#298,.T.);
#372=ORIENTED_EDGE('',*,*,#299,.T.);
#373=ORIENTED_EDGE('',*,*,#294,.F.);
#374=ORIENTED_EDGE('',*,*,#276,.T.);
#375=ORIENTED_EDGE('',*,*,#300,.F.);
#376=ORIENTED_EDGE('',*,*,#301,.F.);
#377=ORIENTED_EDGE('',*,*,#295,.F.);
#378=ORIENTED_EDGE('',*,*,#301,.T.);
#379=ORIENTED_EDGE('',*,*,#302,.F.);
#380=ORIENTED_EDGE('',*,*,#303,.F.);
#381=ORIENTED_EDGE('',*,*,#293,.F.);
#382=ORIENTED_EDGE('',*,*,#303,.T.);
#383=ORIENTED_EDGE('',*,*,#304,.F.);
#384=ORIENTED_EDGE('',*,*,#274,.T.);
#385=ORIENTED_EDGE('',*,*,#305,.T.);
#386=ORIENTED_EDGE('',*,*,#306,.T.);
#387=ORIENTED_EDGE('',*,*,#277,.T.);
#388=ORIENTED_EDGE('',*,*,#307,.T.);
#389=ORIENTED_EDGE('',*,*,#306,.F.);
#390=ORIENTED_EDGE('',*,*,#308,.F.);
#391=ORIENTED_EDGE('',*,*,#309,.F.);
#392=ORIENTED_EDGE('',*,*,#278,.F.);
#393=ORIENTED_EDGE('',*,*,#310,.T.);
#394=ORIENTED_EDGE('',*,*,#311,.T.);
#395=ORIENTED_EDGE('',*,*,#279,.T.);
#396=ORIENTED_EDGE('',*,*,#309,.T.);
#397=ORIENTED_EDGE('',*,*,#312,.T.);
#398=ORIENTED_EDGE('',*,*,#313,.T.);
#399=ORIENTED_EDGE('',*,*,#287,.T.);
#400=ORIENTED_EDGE('',*,*,#314,.T.);
#401=ORIENTED_EDGE('',*,*,#314,.F.);
#402=ORIENTED_EDGE('',*,*,#286,.F.);
#403=ORIENTED_EDGE('',*,*,#315,.F.);
#404=ORIENTED_EDGE('',*,*,#316,.F.);
#405=ORIENTED_EDGE('',*,*,#317,.T.);
#406=ORIENTED_EDGE('',*,*,#315,.T.);
#407=ORIENTED_EDGE('',*,*,#285,.T.);
#408=ORIENTED_EDGE('',*,*,#318,.T.);
#409=ORIENTED_EDGE('',*,*,#319,.F.);
#410=ORIENTED_EDGE('',*,*,#281,.F.);
#411=ORIENTED_EDGE('',*,*,#320,.T.);
#412=ORIENTED_EDGE('',*,*,#321,.T.);
#413=ORIENTED_EDGE('',*,*,#321,.F.);
#414=ORIENTED_EDGE('',*,*,#322,.F.);
#415=ORIENTED_EDGE('',*,*,#323,.F.);
#416=ORIENTED_EDGE('',*,*,#324,.T.);
#417=ORIENTED_EDGE('',*,*,#325,.F.);
#418=ORIENTED_EDGE('',*,*,#323,.T.);
#419=ORIENTED_EDGE('',*,*,#326,.T.);
#420=ORIENTED_EDGE('',*,*,#283,.F.);
#421=ORIENTED_EDGE('',*,*,#319,.T.);
#422=ORIENTED_EDGE('',*,*,#324,.F.);
#423=ORIENTED_EDGE('',*,*,#325,.T.);
#424=ORIENTED_EDGE('',*,*,#282,.F.);
#425=ORIENTED_EDGE('',*,*,#311,.F.);
#426=ORIENTED_EDGE('',*,*,#327,.F.);
#427=ORIENTED_EDGE('',*,*,#318,.F.);
#428=ORIENTED_EDGE('',*,*,#284,.F.);
#429=ORIENTED_EDGE('',*,*,#326,.F.);
#430=ORIENTED_EDGE('',*,*,#322,.T.);
#431=ORIENTED_EDGE('',*,*,#320,.F.);
#432=ORIENTED_EDGE('',*,*,#280,.F.);
#433=ORIENTED_EDGE('',*,*,#289,.F.);
#434=ORIENTED_EDGE('',*,*,#328,.T.);
#435=ORIENTED_EDGE('',*,*,#329,.T.);
#436=ORIENTED_EDGE('',*,*,#330,.F.);
#437=ORIENTED_EDGE('',*,*,#292,.F.);
#438=ORIENTED_EDGE('',*,*,#331,.T.);
#439=ORIENTED_EDGE('',*,*,#332,.T.);
#440=ORIENTED_EDGE('',*,*,#328,.F.);
#441=ORIENTED_EDGE('',*,*,#291,.F.);
#442=ORIENTED_EDGE('',*,*,#333,.T.);
#443=ORIENTED_EDGE('',*,*,#334,.T.);
#444=ORIENTED_EDGE('',*,*,#331,.F.);
#445=ORIENTED_EDGE('',*,*,#290,.F.);
#446=ORIENTED_EDGE('',*,*,#330,.T.);
#447=ORIENTED_EDGE('',*,*,#335,.T.);
#448=ORIENTED_EDGE('',*,*,#333,.F.);
#449=ORIENTED_EDGE('',*,*,#335,.F.);
#450=ORIENTED_EDGE('',*,*,#329,.F.);
#451=ORIENTED_EDGE('',*,*,#332,.F.);
#452=ORIENTED_EDGE('',*,*,#334,.F.);
#453=ORIENTED_EDGE('',*,*,#336,.F.);
#454=ORIENTED_EDGE('',*,*,#337,.T.);
#455=ORIENTED_EDGE('',*,*,#296,.F.);
#456=ORIENTED_EDGE('',*,*,#337,.F.);
#457=ORIENTED_EDGE('',*,*,#338,.F.);
#458=ORIENTED_EDGE('',*,*,#339,.T.);
#459=ORIENTED_EDGE('',*,*,#297,.F.);
#460=ORIENTED_EDGE('',*,*,#339,.F.);
#461=ORIENTED_EDGE('',*,*,#340,.F.);
#462=ORIENTED_EDGE('',*,*,#341,.T.);
#463=ORIENTED_EDGE('',*,*,#298,.F.);
#464=ORIENTED_EDGE('',*,*,#341,.F.);
#465=ORIENTED_EDGE('',*,*,#342,.F.);
#466=ORIENTED_EDGE('',*,*,#343,.T.);
#467=ORIENTED_EDGE('',*,*,#299,.F.);
#468=ORIENTED_EDGE('',*,*,#343,.F.);
#469=ORIENTED_EDGE('',*,*,#307,.F.);
#470=ORIENTED_EDGE('',*,*,#288,.F.);
#471=ORIENTED_EDGE('',*,*,#313,.F.);
#472=ORIENTED_EDGE('',*,*,#344,.F.);
#473=ORIENTED_EDGE('',*,*,#305,.F.);
#474=ORIENTED_EDGE('',*,*,#344,.T.);
#475=ORIENTED_EDGE('',*,*,#312,.F.);
#476=ORIENTED_EDGE('',*,*,#316,.T.);
#477=ORIENTED_EDGE('',*,*,#317,.F.);
#478=ORIENTED_EDGE('',*,*,#327,.T.);
#479=ORIENTED_EDGE('',*,*,#310,.F.);
#480=ORIENTED_EDGE('',*,*,#308,.T.);
#481=ORIENTED_EDGE('',*,*,#304,.T.);
#482=ORIENTED_EDGE('',*,*,#302,.T.);
#483=ORIENTED_EDGE('',*,*,#300,.T.);
#484=ORIENTED_EDGE('',*,*,#275,.T.);
#485=ORIENTED_EDGE('',*,*,#336,.T.);
#486=ORIENTED_EDGE('',*,*,#338,.T.);
#487=ORIENTED_EDGE('',*,*,#340,.T.);
#488=ORIENTED_EDGE('',*,*,#342,.T.);
#489=PLANE('',#547);
#490=PLANE('',#548);
#491=PLANE('',#557);
#492=PLANE('',#558);
#493=PLANE('',#559);
#494=PLANE('',#562);
#495=PLANE('',#567);
#496=PLANE('',#573);
#497=PLANE('',#577);
#498=PLANE('',#578);
#499=PLANE('',#579);
#500=PLANE('',#580);
#501=PLANE('',#581);
#502=PLANE('',#582);
#503=PLANE('',#583);
#504=PLANE('',#592);
#505=PLANE('',#593);
#506=ADVANCED_FACE('',(#56),#489,.F.);
#507=ADVANCED_FACE('',(#57,#25,#26,#27,#28,#29,#30),#490,.F.);
#508=ADVANCED_FACE('',(#58),#491,.F.);
#509=ADVANCED_FACE('',(#59),#492,.F.);
#510=ADVANCED_FACE('',(#60),#493,.F.);
#511=ADVANCED_FACE('',(#61),#15,.T.);
#512=ADVANCED_FACE('',(#62),#494,.T.);
#513=ADVANCED_FACE('',(#63),#16,.T.);
#514=ADVANCED_FACE('',(#64),#17,.T.);
#515=ADVANCED_FACE('',(#65),#495,.T.);
#516=ADVANCED_FACE('',(#66),#18,.T.);
#517=ADVANCED_FACE('',(#67),#19,.F.);
#518=ADVANCED_FACE('',(#68),#496,.F.);
#519=ADVANCED_FACE('',(#69),#20,.F.);
#520=ADVANCED_FACE('',(#70),#497,.F.);
#521=ADVANCED_FACE('',(#71),#498,.T.);
#522=ADVANCED_FACE('',(#72),#499,.F.);
#523=ADVANCED_FACE('',(#73),#500,.F.);
#524=ADVANCED_FACE('',(#74),#501,.F.);
#525=ADVANCED_FACE('',(#75),#502,.F.);
#526=ADVANCED_FACE('',(#76),#503,.F.);
#527=ADVANCED_FACE('',(#77),#21,.F.);
#528=ADVANCED_FACE('',(#78),#22,.F.);
#529=ADVANCED_FACE('',(#79),#23,.F.);
#530=ADVANCED_FACE('',(#80),#24,.F.);
#531=ADVANCED_FACE('',(#81),#504,.T.);
#532=ADVANCED_FACE('',(#82,#31,#32,#33,#34,#35),#505,.T.);
#533=CLOSED_SHELL('',(#506,#507,#508,#509,#510,#511,#512,#513,#514,#515,
#516,#517,#518,#519,#520,#521,#522,#523,#524,#525,#526,#527,#528,#529,#530,
#531,#532));
#534=DERIVED_UNIT_ELEMENT(#536,1.);
#535=DERIVED_UNIT_ELEMENT(#895,-3.);
#536=(
MASS_UNIT()
NAMED_UNIT(*)
SI_UNIT(.KILO.,.GRAM.)
);
#537=DERIVED_UNIT((#534,#535));
#538=MEASURE_REPRESENTATION_ITEM('density measure',
POSITIVE_RATIO_MEASURE(7850.),#537);
#539=PROPERTY_DEFINITION_REPRESENTATION(#544,#541);
#540=PROPERTY_DEFINITION_REPRESENTATION(#545,#542);
#541=REPRESENTATION('material name',(#543),#892);
#542=REPRESENTATION('density',(#538),#892);
#543=DESCRIPTIVE_REPRESENTATION_ITEM('Steel','Steel');
#544=PROPERTY_DEFINITION('material property','material name',#902);
#545=PROPERTY_DEFINITION('material property','density of part',#902);
#546=AXIS2_PLACEMENT_3D('',#742,#594,#595);
#547=AXIS2_PLACEMENT_3D('',#743,#596,#597);
#548=AXIS2_PLACEMENT_3D('',#752,#602,#603);
#549=AXIS2_PLACEMENT_3D('',#755,#604,#605);
#550=AXIS2_PLACEMENT_3D('',#759,#607,#608);
#551=AXIS2_PLACEMENT_3D('',#771,#614,#615);
#552=AXIS2_PLACEMENT_3D('',#775,#617,#618);
#553=AXIS2_PLACEMENT_3D('',#791,#627,#628);
#554=AXIS2_PLACEMENT_3D('',#793,#629,#630);
#555=AXIS2_PLACEMENT_3D('',#795,#631,#632);
#556=AXIS2_PLACEMENT_3D('',#797,#633,#634);
#557=AXIS2_PLACEMENT_3D('',#798,#635,#636);
#558=AXIS2_PLACEMENT_3D('',#802,#639,#640);
#559=AXIS2_PLACEMENT_3D('',#806,#643,#644);
#560=AXIS2_PLACEMENT_3D('',#808,#646,#647);
#561=AXIS2_PLACEMENT_3D('',#811,#648,#649);
#562=AXIS2_PLACEMENT_3D('',#814,#652,#653);
#563=AXIS2_PLACEMENT_3D('',#818,#656,#657);
#564=AXIS2_PLACEMENT_3D('',#820,#658,#659);
#565=AXIS2_PLACEMENT_3D('',#822,#661,#662);
#566=AXIS2_PLACEMENT_3D('',#825,#663,#664);
#567=AXIS2_PLACEMENT_3D('',#828,#667,#668);
#568=AXIS2_PLACEMENT_3D('',#832,#671,#672);
#569=AXIS2_PLACEMENT_3D('',#834,#673,#674);
#570=AXIS2_PLACEMENT_3D('',#836,#676,#677);
#571=AXIS2_PLACEMENT_3D('',#838,#678,#679);
#572=AXIS2_PLACEMENT_3D('',#840,#680,#681);
#573=AXIS2_PLACEMENT_3D('',#842,#683,#684);
#574=AXIS2_PLACEMENT_3D('',#848,#688,#689);
#575=AXIS2_PLACEMENT_3D('',#849,#690,#691);
#576=AXIS2_PLACEMENT_3D('',#850,#692,#693);
#577=AXIS2_PLACEMENT_3D('',#851,#694,#695);
#578=AXIS2_PLACEMENT_3D('',#852,#696,#697);
#579=AXIS2_PLACEMENT_3D('',#854,#699,#700);
#580=AXIS2_PLACEMENT_3D('',#860,#704,#705);
#581=AXIS2_PLACEMENT_3D('',#864,#708,#709);
#582=AXIS2_PLACEMENT_3D('',#868,#712,#713);
#583=AXIS2_PLACEMENT_3D('',#870,#715,#716);
#584=AXIS2_PLACEMENT_3D('',#871,#717,#718);
#585=AXIS2_PLACEMENT_3D('',#873,#719,#720);
#586=AXIS2_PLACEMENT_3D('',#875,#722,#723);
#587=AXIS2_PLACEMENT_3D('',#877,#724,#725);
#588=AXIS2_PLACEMENT_3D('',#879,#727,#728);
#589=AXIS2_PLACEMENT_3D('',#881,#729,#730);
#590=AXIS2_PLACEMENT_3D('',#883,#732,#733);
#591=AXIS2_PLACEMENT_3D('',#885,#734,#735);
#592=AXIS2_PLACEMENT_3D('',#887,#737,#738);
#593=AXIS2_PLACEMENT_3D('',#889,#740,#741);
#594=DIRECTION('axis',(0.,0.,1.));
#595=DIRECTION('refdir',(1.,0.,0.));
#596=DIRECTION('center_axis',(-1.,0.,0.));
#597=DIRECTION('ref_axis',(0.,0.,1.));
#598=DIRECTION('',(0.,-1.,0.));
#599=DIRECTION('',(0.,0.,-1.));
#600=DIRECTION('',(0.,1.,0.));
#601=DIRECTION('',(0.,0.,1.));
#602=DIRECTION('center_axis',(0.,0.,1.));
#603=DIRECTION('ref_axis',(1.,0.,0.));
#604=DIRECTION('center_axis',(0.,0.,1.));
#605=DIRECTION('ref_axis',(-0.707106781186546,-0.707106781186549,0.));
#606=DIRECTION('',(0.,1.,0.));
#607=DIRECTION('center_axis',(0.,0.,1.));
#608=DIRECTION('ref_axis',(-0.707106781186546,0.707106781186549,0.));
#609=DIRECTION('',(1.,0.,0.));
#610=DIRECTION('',(0.,-1.,0.));
#611=DIRECTION('',(1.,0.,0.));
#612=DIRECTION('',(0.,1.,0.));
#613=DIRECTION('',(1.,0.,0.));
#614=DIRECTION('center_axis',(0.,0.,1.));
#615=DIRECTION('ref_axis',(0.707106781186546,0.707106781186549,0.));
#616=DIRECTION('',(0.,-1.,0.));
#617=DIRECTION('center_axis',(0.,0.,1.));
#618=DIRECTION('ref_axis',(0.707106781186546,-0.707106781186549,0.));
#619=DIRECTION('',(-1.,0.,0.));
#620=DIRECTION('',(0.,-1.,0.));
#621=DIRECTION('',(1.,0.,0.));
#622=DIRECTION('',(0.,1.,0.));
#623=DIRECTION('',(-1.,0.,0.));
#624=DIRECTION('',(-1.,0.,0.));
#625=DIRECTION('',(1.,0.,0.));
#626=DIRECTION('',(0.,1.,0.));
#627=DIRECTION('center_axis',(0.,0.,1.));
#628=DIRECTION('ref_axis',(-1.,0.,0.));
#629=DIRECTION('center_axis',(0.,0.,1.));
#630=DIRECTION('ref_axis',(-1.,0.,0.));
#631=DIRECTION('center_axis',(0.,0.,1.));
#632=DIRECTION('ref_axis',(-1.,0.,0.));
#633=DIRECTION('center_axis',(0.,0.,1.));
#634=DIRECTION('ref_axis',(-1.,0.,0.));
#635=DIRECTION('center_axis',(0.,-1.,0.));
#636=DIRECTION('ref_axis',(0.,0.,-1.));
#637=DIRECTION('',(-1.,0.,0.));
#638=DIRECTION('',(0.,0.,1.));
#639=DIRECTION('center_axis',(1.,0.,0.));
#640=DIRECTION('ref_axis',(0.,0.,-1.));
#641=DIRECTION('',(0.,-1.,0.));
#642=DIRECTION('',(0.,0.,1.));
#643=DIRECTION('center_axis',(0.,1.,0.));
#644=DIRECTION('ref_axis',(0.,0.,1.));
#645=DIRECTION('',(1.,0.,0.));
#646=DIRECTION('center_axis',(0.,0.,1.));
#647=DIRECTION('ref_axis',(-0.707106781186546,-0.707106781186549,0.));
#648=DIRECTION('center_axis',(0.,0.,-1.));
#649=DIRECTION('ref_axis',(-0.707106781186546,-0.707106781186549,0.));
#650=DIRECTION('',(0.,0.,-1.));
#651=DIRECTION('',(0.,0.,1.));
#652=DIRECTION('center_axis',(-1.,0.,0.));
#653=DIRECTION('ref_axis',(0.,-1.,0.));
#654=DIRECTION('',(0.,-1.,0.));
#655=DIRECTION('',(0.,0.,1.));
#656=DIRECTION('center_axis',(0.,0.,1.));
#657=DIRECTION('ref_axis',(-0.707106781186546,0.707106781186549,0.));
#658=DIRECTION('center_axis',(0.,0.,-1.));
#659=DIRECTION('ref_axis',(-0.707106781186546,0.707106781186549,0.));
#660=DIRECTION('',(0.,0.,-1.));
#661=DIRECTION('center_axis',(0.,0.,1.));
#662=DIRECTION('ref_axis',(0.707106781186546,-0.707106781186549,0.));
#663=DIRECTION('center_axis',(0.,0.,-1.));
#664=DIRECTION('ref_axis',(0.707106781186546,-0.707106781186549,0.));
#665=DIRECTION('',(0.,0.,-1.));
#666=DIRECTION('',(0.,0.,1.));
#667=DIRECTION('center_axis',(1.,0.,0.));
#668=DIRECTION('ref_axis',(0.,1.,0.));
#669=DIRECTION('',(0.,0.,-1.));
#670=DIRECTION('',(0.,1.,0.));
#671=DIRECTION('center_axis',(0.,0.,1.));
#672=DIRECTION('ref_axis',(0.707106781186546,0.707106781186549,0.));
#673=DIRECTION('center_axis',(0.,0.,-1.));
#674=DIRECTION('ref_axis',(0.707106781186546,0.707106781186549,0.));
#675=DIRECTION('',(0.,0.,1.));
#676=DIRECTION('center_axis',(0.,-1.,0.));
#677=DIRECTION('ref_axis',(-0.707106781186547,0.,0.707106781186548));
#678=DIRECTION('center_axis',(0.,1.,0.));
#679=DIRECTION('ref_axis',(-0.707106781186547,0.,0.707106781186548));
#680=DIRECTION('center_axis',(0.,1.,0.));
#681=DIRECTION('ref_axis',(-0.707106781186547,0.,0.707106781186548));
#682=DIRECTION('',(0.,-1.,0.));
#683=DIRECTION('center_axis',(0.,0.,1.));
#684=DIRECTION('ref_axis',(-1.,0.,0.));
#685=DIRECTION('',(-1.,0.,0.));
#686=DIRECTION('',(0.,1.,0.));
#687=DIRECTION('',(-1.,0.,0.));
#688=DIRECTION('center_axis',(0.,-1.,0.));
#689=DIRECTION('ref_axis',(0.707106781186548,0.,0.707106781186547));
#690=DIRECTION('center_axis',(0.,1.,0.));
#691=DIRECTION('ref_axis',(0.707106781186548,0.,0.707106781186547));
#692=DIRECTION('center_axis',(0.,1.,0.));
#693=DIRECTION('ref_axis',(0.707106781186548,0.,0.707106781186547));
#694=DIRECTION('center_axis',(0.,-1.,0.));
#695=DIRECTION('ref_axis',(0.,0.,-1.));
#696=DIRECTION('center_axis',(0.,1.,0.));
#697=DIRECTION('ref_axis',(-1.,0.,0.));
#698=DIRECTION('',(-1.,0.,0.));
#699=DIRECTION('center_axis',(-1.,0.,0.));
#700=DIRECTION('ref_axis',(0.,-1.,0.));
#701=DIRECTION('',(0.,0.,1.));
#702=DIRECTION('',(0.,-1.,0.));
#703=DIRECTION('',(0.,0.,1.));
#704=DIRECTION('center_axis',(0.,1.,0.));
#705=DIRECTION('ref_axis',(-1.,0.,0.));
#706=DIRECTION('',(0.,0.,1.));
#707=DIRECTION('',(-1.,0.,0.));
#708=DIRECTION('center_axis',(1.,0.,0.));
#709=DIRECTION('ref_axis',(0.,1.,0.));
#710=DIRECTION('',(0.,0.,1.));
#711=DIRECTION('',(0.,1.,0.));
#712=DIRECTION('center_axis',(0.,-1.,0.));
#713=DIRECTION('ref_axis',(1.,0.,0.));
#714=DIRECTION('',(1.,0.,0.));
#715=DIRECTION('center_axis',(0.,0.,1.));
#716=DIRECTION('ref_axis',(1.,0.,0.));
#717=DIRECTION('center_axis',(0.,0.,-1.));
#718=DIRECTION('ref_axis',(-1.,0.,0.));
#719=DIRECTION('center_axis',(0.,0.,-1.));
#720=DIRECTION('ref_axis',(-1.,0.,0.));
#721=DIRECTION('',(0.,0.,-1.));
#722=DIRECTION('center_axis',(0.,0.,-1.));
#723=DIRECTION('ref_axis',(-1.,0.,0.));
#724=DIRECTION('center_axis',(0.,0.,-1.));
#725=DIRECTION('ref_axis',(-1.,0.,0.));
#726=DIRECTION('',(0.,0.,-1.));
#727=DIRECTION('center_axis',(0.,0.,-1.));
#728=DIRECTION('ref_axis',(-1.,0.,0.));
#729=DIRECTION('center_axis',(0.,0.,-1.));
#730=DIRECTION('ref_axis',(-1.,0.,0.));
#731=DIRECTION('',(0.,0.,-1.));
#732=DIRECTION('center_axis',(0.,0.,-1.));
#733=DIRECTION('ref_axis',(-1.,0.,0.));
#734=DIRECTION('center_axis',(0.,0.,-1.));
#735=DIRECTION('ref_axis',(-1.,0.,0.));
#736=DIRECTION('',(0.,0.,-1.));
#737=DIRECTION('center_axis',(0.,-1.,0.));
#738=DIRECTION('ref_axis',(1.,0.,0.));
#739=DIRECTION('',(1.,0.,0.));
#740=DIRECTION('center_axis',(0.,0.,1.));
#741=DIRECTION('ref_axis',(1.,0.,0.));
#742=CARTESIAN_POINT('',(0.,0.,0.));
#743=CARTESIAN_POINT('Origin',(-30.1440433010208,-17.3978106393999,3.));
#744=CARTESIAN_POINT('',(-30.1440433010208,3.31637166245786,0.));
#745=CARTESIAN_POINT('',(-30.1440433010208,-18.3978106393999,0.));
#746=CARTESIAN_POINT('',(-30.1440433010208,-8.69890531969993,0.));
#747=CARTESIAN_POINT('',(-30.1440433010208,3.31637166245786,3.));
#748=CARTESIAN_POINT('',(-30.1440433010208,3.31637166245786,3.));
#749=CARTESIAN_POINT('',(-30.1440433010208,-18.3978106393999,3.));
#750=CARTESIAN_POINT('',(-30.1440433010208,-8.69890531969993,3.));
#751=CARTESIAN_POINT('',(-30.1440433010208,-18.3978106393999,3.));
#752=CARTESIAN_POINT('Origin',(0.,0.,0.));
#753=CARTESIAN_POINT('',(-53.5,-32.5775,0.));
#754=CARTESIAN_POINT('',(-51.5,-34.5775,0.));
#755=CARTESIAN_POINT('Origin',(-51.5,-32.5775,0.));
#756=CARTESIAN_POINT('',(-53.5,32.5775,0.));
#757=CARTESIAN_POINT('',(-53.5,-34.5775,0.));
#758=CARTESIAN_POINT('',(-51.5,34.5775,0.));
#759=CARTESIAN_POINT('Origin',(-51.5,32.5775,0.));
#760=CARTESIAN_POINT('',(-3.9024848938,34.5775,0.));
#761=CARTESIAN_POINT('',(-53.5,34.5775,0.));
#762=CARTESIAN_POINT('',(-3.9024848938,24.5775,0.));
#763=CARTESIAN_POINT('',(-3.9024848938,17.28875,0.));
#764=CARTESIAN_POINT('',(14.0975151062,24.5775,0.));
#765=CARTESIAN_POINT('',(2.5487575531,24.5775,0.));
#766=CARTESIAN_POINT('',(14.0975151062,34.5775,0.));
#767=CARTESIAN_POINT('',(14.0975151062,17.28875,0.));
#768=CARTESIAN_POINT('',(51.5,34.5775,0.));
#769=CARTESIAN_POINT('',(-53.5,34.5775,0.));
#770=CARTESIAN_POINT('',(53.5,32.5775,0.));
#771=CARTESIAN_POINT('Origin',(51.5,32.5775,0.));
#772=CARTESIAN_POINT('',(53.5,-32.5775,0.));
#773=CARTESIAN_POINT('',(53.5,34.5775,0.));
#774=CARTESIAN_POINT('',(51.5,-34.5775,0.));
#775=CARTESIAN_POINT('Origin',(51.5,-32.5775,0.));
#776=CARTESIAN_POINT('',(53.5,-34.5775,0.));
#777=CARTESIAN_POINT('',(13.3124019977,22.9752882971,0.));
#778=CARTESIAN_POINT('',(13.3124019977,5.9752882971,0.));
#779=CARTESIAN_POINT('',(13.3124019977,11.48764414855,0.));
#780=CARTESIAN_POINT('',(30.3124019977,5.9752882971,0.));
#781=CARTESIAN_POINT('',(6.65620099885,5.9752882971,0.));
#782=CARTESIAN_POINT('',(30.3124019977,22.9752882971,0.));
#783=CARTESIAN_POINT('',(30.3124019977,2.98764414855,0.));
#784=CARTESIAN_POINT('',(15.15620099885,22.9752882971,0.));
#785=CARTESIAN_POINT('',(30.0794210669991,3.31637166245786,0.));
#786=CARTESIAN_POINT('',(-14.5720216505104,3.31637166245786,0.));
#787=CARTESIAN_POINT('',(30.0794210669991,-18.3978106393999,0.));
#788=CARTESIAN_POINT('',(-14.5720216505104,-18.3978106393999,0.));
#789=CARTESIAN_POINT('',(30.0794210669991,-8.69890531969993,0.));
#790=CARTESIAN_POINT('',(-42.511,-29.4995,0.));
#791=CARTESIAN_POINT('Origin',(-44.111,-29.4995,0.));
#792=CARTESIAN_POINT('',(45.711,-29.4995,0.));
#793=CARTESIAN_POINT('Origin',(44.111,-29.4995,0.));
#794=CARTESIAN_POINT('',(-47.2635008357598,29.9410008357598,0.));
#795=CARTESIAN_POINT('Origin',(-48.8635008357598,29.9410008357598,0.));
#796=CARTESIAN_POINT('',(50.4635008357598,29.9410008357598,0.));
#797=CARTESIAN_POINT('Origin',(48.8635008357598,29.9410008357598,0.));
#798=CARTESIAN_POINT('Origin',(29.0794210669991,-18.3978106393999,3.));
#799=CARTESIAN_POINT('',(30.0794210669991,-18.3978106393999,3.));
#800=CARTESIAN_POINT('',(-14.5720216505104,-18.3978106393999,3.));
#801=CARTESIAN_POINT('',(30.0794210669991,-18.3978106393999,3.));
#802=CARTESIAN_POINT('Origin',(30.0794210669991,2.31637166245786,3.));
#803=CARTESIAN_POINT('',(30.0794210669991,3.31637166245786,3.));
#804=CARTESIAN_POINT('',(30.0794210669991,-8.69890531969993,3.));
#805=CARTESIAN_POINT('',(30.0794210669991,3.31637166245786,3.));
#806=CARTESIAN_POINT('Origin',(-29.1440433010208,3.31637166245786,3.));
#807=CARTESIAN_POINT('',(-14.5720216505104,3.31637166245786,3.));
#808=CARTESIAN_POINT('Origin',(-51.5,-32.5775,0.));
#809=CARTESIAN_POINT('',(-51.5,-34.5775,3.));
#810=CARTESIAN_POINT('',(-53.5,-32.5775,3.));
#811=CARTESIAN_POINT('Origin',(-51.5,-32.5775,3.));
#812=CARTESIAN_POINT('',(-53.5,-32.5775,0.));
#813=CARTESIAN_POINT('',(-51.5,-34.5775,0.));
#814=CARTESIAN_POINT('Origin',(-53.5,34.5775,0.));
#815=CARTESIAN_POINT('',(-53.5,32.5775,3.));
#816=CARTESIAN_POINT('',(-53.5,-34.5775,3.));
#817=CARTESIAN_POINT('',(-53.5,32.5775,0.));
#818=CARTESIAN_POINT('Origin',(-51.5,32.5775,0.));
#819=CARTESIAN_POINT('',(-51.5,34.5775,3.));
#820=CARTESIAN_POINT('Origin',(-51.5,32.5775,3.));
#821=CARTESIAN_POINT('',(-51.5,34.5775,0.));
#822=CARTESIAN_POINT('Origin',(51.5,-32.5775,0.));
#823=CARTESIAN_POINT('',(53.5,-32.5775,3.));
#824=CARTESIAN_POINT('',(51.5,-34.5775,3.));
#825=CARTESIAN_POINT('Origin',(51.5,-32.5775,3.));
#826=CARTESIAN_POINT('',(51.5,-34.5775,0.));
#827=CARTESIAN_POINT('',(53.5,-32.5775,0.));
#828=CARTESIAN_POINT('Origin',(53.5,-34.5775,0.));
#829=CARTESIAN_POINT('',(53.5,32.5775,3.));
#830=CARTESIAN_POINT('',(53.5,32.5775,0.));
#831=CARTESIAN_POINT('',(53.5,34.5775,3.));
#832=CARTESIAN_POINT('Origin',(51.5,32.5775,0.));
#833=CARTESIAN_POINT('',(51.5,34.5775,3.));
#834=CARTESIAN_POINT('Origin',(51.5,32.5775,3.));
#835=CARTESIAN_POINT('',(51.5,34.5775,0.));
#836=CARTESIAN_POINT('Origin',(-2.9024848938,34.5775,0.));
#837=CARTESIAN_POINT('',(-2.9024848938,24.5775,1.));
#838=CARTESIAN_POINT('Origin',(-2.9024848938,24.5775,0.));
#839=CARTESIAN_POINT('',(-2.9024848938,34.5775,1.));
#840=CARTESIAN_POINT('Origin',(-2.9024848938,34.5775,0.));
#841=CARTESIAN_POINT('',(-2.9024848938,34.5775,1.));
#842=CARTESIAN_POINT('Origin',(14.0975151062,34.5775,1.));
#843=CARTESIAN_POINT('',(13.0975151062,34.5775,1.));
#844=CARTESIAN_POINT('',(33.7987575531,34.5775,1.));
#845=CARTESIAN_POINT('',(13.0975151062,24.5775,1.));
#846=CARTESIAN_POINT('',(13.0975151062,34.5775,1.));
#847=CARTESIAN_POINT('',(-3.9024848938,24.5775,1.));
#848=CARTESIAN_POINT('Origin',(13.0975151062,34.5775,0.));
#849=CARTESIAN_POINT('Origin',(13.0975151062,24.5775,0.));
#850=CARTESIAN_POINT('Origin',(13.0975151062,34.5775,0.));
#851=CARTESIAN_POINT('Origin',(5.0975151062,24.5775,0.5));
#852=CARTESIAN_POINT('Origin',(53.5,34.5775,0.));
#853=CARTESIAN_POINT('',(-53.5,34.5775,3.));
#854=CARTESIAN_POINT('Origin',(13.3124019977,22.9752882971,0.));
#855=CARTESIAN_POINT('',(13.3124019977,22.9752882971,1.5));
#856=CARTESIAN_POINT('',(13.3124019977,22.9752882971,0.));
#857=CARTESIAN_POINT('',(13.3124019977,5.9752882971,1.5));
#858=CARTESIAN_POINT('',(13.3124019977,22.9752882971,1.5));
#859=CARTESIAN_POINT('',(13.3124019977,5.9752882971,0.));
#860=CARTESIAN_POINT('Origin',(30.3124019977,22.9752882971,0.));
#861=CARTESIAN_POINT('',(30.3124019977,22.9752882971,1.5));
#862=CARTESIAN_POINT('',(30.3124019977,22.9752882971,0.));
#863=CARTESIAN_POINT('',(30.3124019977,22.9752882971,1.5));
#864=CARTESIAN_POINT('Origin',(30.3124019977,5.9752882971,0.));
#865=CARTESIAN_POINT('',(30.3124019977,5.9752882971,1.5));
#866=CARTESIAN_POINT('',(30.3124019977,5.9752882971,0.));
#867=CARTESIAN_POINT('',(30.3124019977,5.9752882971,1.5));
#868=CARTESIAN_POINT('Origin',(13.3124019977,5.9752882971,0.));
#869=CARTESIAN_POINT('',(13.3124019977,5.9752882971,1.5));
#870=CARTESIAN_POINT('Origin',(21.8124019977,14.4752882971,1.5));
#871=CARTESIAN_POINT('Origin',(-44.111,-29.4995,3.));
#872=CARTESIAN_POINT('',(-42.511,-29.4995,3.));
#873=CARTESIAN_POINT('Origin',(-44.111,-29.4995,3.));
#874=CARTESIAN_POINT('',(-42.511,-29.4995,3.));
#875=CARTESIAN_POINT('Origin',(44.111,-29.4995,3.));
#876=CARTESIAN_POINT('',(45.711,-29.4995,3.));
#877=CARTESIAN_POINT('Origin',(44.111,-29.4995,3.));
#878=CARTESIAN_POINT('',(45.711,-29.4995,3.));
#879=CARTESIAN_POINT('Origin',(-48.8635008357598,29.9410008357598,3.));
#880=CARTESIAN_POINT('',(-47.2635008357598,29.9410008357598,3.));
#881=CARTESIAN_POINT('Origin',(-48.8635008357598,29.9410008357598,3.));
#882=CARTESIAN_POINT('',(-47.2635008357598,29.9410008357598,3.));
#883=CARTESIAN_POINT('Origin',(48.8635008357598,29.9410008357598,3.));
#884=CARTESIAN_POINT('',(50.4635008357598,29.9410008357598,3.));
#885=CARTESIAN_POINT('Origin',(48.8635008357598,29.9410008357598,3.));
#886=CARTESIAN_POINT('',(50.4635008357598,29.9410008357598,3.));
#887=CARTESIAN_POINT('Origin',(-53.5,-34.5775,0.));
#888=CARTESIAN_POINT('',(53.5,-34.5775,3.));
#889=CARTESIAN_POINT('Origin',(0.,0.,3.));
#890=UNCERTAINTY_MEASURE_WITH_UNIT(LENGTH_MEASURE(0.01),#894,
'DISTANCE_ACCURACY_VALUE',
'Maximum model space distance between geometric entities at asserted c
onnectivities');
#891=UNCERTAINTY_MEASURE_WITH_UNIT(LENGTH_MEASURE(0.01),#894,
'DISTANCE_ACCURACY_VALUE',
'Maximum model space distance between geometric entities at asserted c
onnectivities');
#892=(
GEOMETRIC_REPRESENTATION_CONTEXT(3)
GLOBAL_UNCERTAINTY_ASSIGNED_CONTEXT((#890))
GLOBAL_UNIT_ASSIGNED_CONTEXT((#894,#896,#897))
REPRESENTATION_CONTEXT('','3D')
);
#893=(
GEOMETRIC_REPRESENTATION_CONTEXT(3)
GLOBAL_UNCERTAINTY_ASSIGNED_CONTEXT((#891))
GLOBAL_UNIT_ASSIGNED_CONTEXT((#894,#896,#897))
REPRESENTATION_CONTEXT('','3D')
);
#894=(
LENGTH_UNIT()
NAMED_UNIT(*)
SI_UNIT(.MILLI.,.METRE.)
);
#895=(
LENGTH_UNIT()
NAMED_UNIT(*)
SI_UNIT($,.METRE.)
);
#896=(
NAMED_UNIT(*)
PLANE_ANGLE_UNIT()
SI_UNIT($,.RADIAN.)
);
#897=(
NAMED_UNIT(*)
SI_UNIT($,.STERADIAN.)
SOLID_ANGLE_UNIT()
);
#898=SHAPE_DEFINITION_REPRESENTATION(#899,#900);
#899=PRODUCT_DEFINITION_SHAPE('',$,#902);
#900=SHAPE_REPRESENTATION('',(#546),#892);
#901=PRODUCT_DEFINITION_CONTEXT('part definition',#906,'design');
#902=PRODUCT_DEFINITION('Alarm Clock Lid','Alarm Clock Lid v9',#903,#901);
#903=PRODUCT_DEFINITION_FORMATION('',$,#908);
#904=PRODUCT_RELATED_PRODUCT_CATEGORY('Alarm Clock Lid v9',
'Alarm Clock Lid v9',(#908));
#905=APPLICATION_PROTOCOL_DEFINITION('international standard',
'automotive_design',2009,#906);
#906=APPLICATION_CONTEXT(
'Core Data for Automotive Mechanical Design Process');
#907=PRODUCT_CONTEXT('part definition',#906,'mechanical');
#908=PRODUCT('Alarm Clock Lid','Alarm Clock Lid v9',$,(#907));
#909=PRESENTATION_STYLE_ASSIGNMENT((#910));
#910=SURFACE_STYLE_USAGE(.BOTH.,#911);
#911=SURFACE_SIDE_STYLE('',(#912));
#912=SURFACE_STYLE_FILL_AREA(#913);
#913=FILL_AREA_STYLE('Steel - Satin',(#914));
#914=FILL_AREA_STYLE_COLOUR('Steel - Satin',#915);
#915=COLOUR_RGB('Steel - Satin',0.627450980392157,0.627450980392157,0.627450980392157);
ENDSEC;
END-ISO-10303-21;
